<svg width="96" height="96" viewBox="0 0 96 96" fill="none" xmlns="http://www.w3.org/2000/svg">
<path d="M70 48C70 50.9962 69.388 53.9609 68.2015 56.7122C67.015 59.4635 65.279 61.9435 63.1 64C59.0211 67.8605 53.6161 70.0082 48 70C42.156 70 36.84 67.72 32.9 64C30.721 61.9435 28.985 59.4635 27.7985 56.7122C26.612 53.9609 26 50.9962 26 48H70Z" fill="white"/>
<path fill-rule="evenodd" clip-rule="evenodd" d="M4 28C4 21.6348 6.52856 15.5303 11.0294 11.0294C15.5303 6.52856 21.6348 4 28 4H68C74.3652 4 80.4697 6.52856 84.9706 11.0294C89.4714 15.5303 92 21.6348 92 28V68C92 74.3652 89.4714 80.4697 84.9706 84.9706C80.4697 89.4714 74.3652 92 68 92H4V28ZM15 48C15 39.2479 18.4768 30.8542 24.6655 24.6655C30.8542 18.4768 39.2479 15 48 15C56.7521 15 65.1458 18.4768 71.3345 24.6655C77.5232 30.8542 81 39.2479 81 48C81 56.7521 77.5232 65.1458 71.3345 71.3345C65.1458 77.5232 56.7521 81 48 81C39.2479 81 30.8542 77.5232 24.6655 71.3345C18.4768 65.1458 15 56.7521 15 48Z" fill="white"/>
<circle cx="33.5" cy="35.5" r="5.5" fill="white"/>
<circle cx="61.5" cy="35.5" r="5.5" fill="white"/>
</svg>
