<?xml version="1.0" encoding="UTF-8"?>
<svg xmlns="http://www.w3.org/2000/svg" xmlns:xlink="http://www.w3.org/1999/xlink" width="155px" height="78px" viewBox="0 0 156 78" version="1.1">
<defs>
<filter id="alpha" filterUnits="objectBoundingBox" x="0%" y="0%" width="100%" height="100%">
  <feColorMatrix type="matrix" in="SourceGraphic" values="0 0 0 0 1 0 0 0 0 1 0 0 0 0 1 0 0 0 1 0"/>
</filter>
<mask id="mask0">
  <g filter="url(#alpha)">
<rect x="0" y="0" width="156" height="78" style="fill:rgb(0%,0%,0%);fill-opacity:0.984314;stroke:none;"/>
  </g>
</mask>
<clipPath id="clip1">
  <rect x="0" y="0" width="156" height="78"/>
</clipPath>
<g id="surface5" clip-path="url(#clip1)">
<path style=" stroke:none;fill-rule:evenodd;fill:rgb(92.156863%,12.156863%,15.294118%);fill-opacity:1;" d="M 59.863281 29.445312 C 55.816406 28.195312 51.785156 26.898438 47.773438 25.546875 C 45.359375 21.605469 41.847656 19.285156 37.246094 18.589844 C 33.734375 18.523438 30.226562 18.503906 26.714844 18.523438 C 26.398438 18.398438 26.050781 18.355469 25.675781 18.394531 C 22.574219 17.332031 19.457031 16.292969 16.316406 15.273438 C 16.316406 13.195312 16.316406 11.113281 16.316406 9.035156 C 23.207031 9.011719 30.09375 9.035156 36.984375 9.101562 C 46.890625 9.769531 53.976562 14.558594 58.238281 23.464844 C 59.058594 25.382812 59.601562 27.375 59.863281 29.445312 Z M 59.863281 29.445312 "/>
</g>
<mask id="mask1">
  <g filter="url(#alpha)">
<rect x="0" y="0" width="156" height="78" style="fill:rgb(0%,0%,0%);fill-opacity:0.992157;stroke:none;"/>
  </g>
</mask>
<clipPath id="clip2">
  <rect x="0" y="0" width="156" height="78"/>
</clipPath>
<g id="surface8" clip-path="url(#clip2)">
<path style=" stroke:none;fill-rule:evenodd;fill:rgb(92.156863%,12.156863%,15.294118%);fill-opacity:1;" d="M 141.375 27.886719 C 137.90625 27.019531 134.441406 26.152344 130.976562 25.285156 C 131.089844 23.191406 130.351562 21.4375 128.765625 20.019531 C 128.027344 19.476562 127.25 19 126.425781 18.589844 C 121.988281 18.632812 117.566406 18.652344 113.164062 18.65625 C 111.820312 18.632812 110.476562 18.65625 109.136719 18.71875 C 108.464844 18.855469 107.8125 19.050781 107.183594 19.304688 C 105.578125 18.933594 103.972656 18.546875 102.375 18.136719 C 102.375 15.144531 102.375 12.15625 102.375 9.164062 C 110.738281 9.144531 119.101562 9.164062 127.464844 9.230469 C 133.574219 10.105469 137.929688 13.332031 140.53125 18.914062 C 141.648438 21.824219 141.929688 24.816406 141.375 27.886719 Z M 141.375 27.886719 "/>
</g>
<mask id="mask2">
  <g filter="url(#alpha)">
<rect x="0" y="0" width="156" height="78" style="fill:rgb(0%,0%,0%);fill-opacity:0.992157;stroke:none;"/>
  </g>
</mask>
<clipPath id="clip3">
  <rect x="0" y="0" width="156" height="78"/>
</clipPath>
<g id="surface11" clip-path="url(#clip3)">
<path style=" stroke:none;fill-rule:evenodd;fill:rgb(89.803922%,12.156863%,15.686275%);fill-opacity:1;" d="M 16.316406 15.273438 C 19.457031 16.292969 22.574219 17.332031 25.675781 18.394531 C 24.398438 18.539062 23.1875 18.886719 22.035156 19.433594 C 20.152344 18.746094 18.246094 18.097656 16.316406 17.484375 C 16.316406 16.75 16.316406 16.011719 16.316406 15.273438 Z M 16.316406 15.273438 "/>
</g>
<mask id="mask3">
  <g filter="url(#alpha)">
<rect x="0" y="0" width="156" height="78" style="fill:rgb(0%,0%,0%);fill-opacity:0.988235;stroke:none;"/>
  </g>
</mask>
<clipPath id="clip4">
  <rect x="0" y="0" width="156" height="78"/>
</clipPath>
<g id="surface14" clip-path="url(#clip4)">
<path style=" stroke:none;fill-rule:evenodd;fill:rgb(88.235294%,12.54902%,15.686275%);fill-opacity:1;" d="M 16.316406 17.484375 C 18.246094 18.097656 20.152344 18.746094 22.035156 19.433594 C 21.667969 19.683594 21.277344 19.902344 20.863281 20.085938 C 19.359375 19.570312 17.84375 19.046875 16.316406 18.523438 C 16.316406 18.179688 16.316406 17.832031 16.316406 17.484375 Z M 16.316406 17.484375 "/>
</g>
<mask id="mask4">
  <g filter="url(#alpha)">
<rect x="0" y="0" width="156" height="78" style="fill:rgb(0%,0%,0%);fill-opacity:0.984314;stroke:none;"/>
  </g>
</mask>
<clipPath id="clip5">
  <rect x="0" y="0" width="156" height="78"/>
</clipPath>
<g id="surface17" clip-path="url(#clip5)">
<path style=" stroke:none;fill-rule:evenodd;fill:rgb(89.803922%,12.156863%,15.686275%);fill-opacity:1;" d="M 102.375 18.136719 C 103.972656 18.546875 105.578125 18.933594 107.183594 19.304688 C 106.667969 19.605469 106.148438 19.910156 105.625 20.214844 C 104.535156 19.976562 103.453125 19.714844 102.375 19.433594 C 102.375 19 102.375 18.566406 102.375 18.136719 Z M 102.375 18.136719 "/>
</g>
<mask id="mask5">
  <g filter="url(#alpha)">
<rect x="0" y="0" width="156" height="78" style="fill:rgb(0%,0%,0%);fill-opacity:0.996078;stroke:none;"/>
  </g>
</mask>
<clipPath id="clip6">
  <rect x="0" y="0" width="156" height="78"/>
</clipPath>
<g id="surface20" clip-path="url(#clip6)">
<path style=" stroke:none;fill-rule:evenodd;fill:rgb(69.803922%,12.156863%,16.078431%);fill-opacity:1;" d="M 25.675781 18.394531 C 26.050781 18.355469 26.398438 18.398438 26.714844 18.523438 C 26.714844 22.511719 26.714844 26.5 26.714844 30.484375 C 23.246094 30.804688 19.777344 31.148438 16.316406 31.523438 C 16.316406 30.226562 16.316406 28.925781 16.316406 27.625 C 16.652344 25.484375 17.519531 23.578125 18.914062 21.90625 C 19.492188 21.207031 20.140625 20.601562 20.863281 20.085938 C 21.277344 19.902344 21.667969 19.683594 22.035156 19.433594 C 23.1875 18.886719 24.398438 18.539062 25.675781 18.394531 Z M 25.675781 18.394531 "/>
</g>
<mask id="mask6">
  <g filter="url(#alpha)">
<rect x="0" y="0" width="156" height="78" style="fill:rgb(0%,0%,0%);fill-opacity:0.984314;stroke:none;"/>
  </g>
</mask>
<clipPath id="clip7">
  <rect x="0" y="0" width="156" height="78"/>
</clipPath>
<g id="surface23" clip-path="url(#clip7)">
<path style=" stroke:none;fill-rule:evenodd;fill:rgb(86.666667%,12.156863%,15.686275%);fill-opacity:1;" d="M 16.316406 18.523438 C 17.84375 19.046875 19.359375 19.570312 20.863281 20.085938 C 20.140625 20.601562 19.492188 21.207031 18.914062 21.90625 C 18.023438 21.722656 17.15625 21.464844 16.316406 21.125 C 16.316406 20.257812 16.316406 19.390625 16.316406 18.523438 Z M 16.316406 18.523438 "/>
</g>
<mask id="mask7">
  <g filter="url(#alpha)">
<rect x="0" y="0" width="156" height="78" style="fill:rgb(0%,0%,0%);fill-opacity:0.992157;stroke:none;"/>
  </g>
</mask>
<clipPath id="clip8">
  <rect x="0" y="0" width="156" height="78"/>
</clipPath>
<g id="surface26" clip-path="url(#clip8)">
<path style=" stroke:none;fill-rule:evenodd;fill:rgb(69.803922%,12.156863%,16.078431%);fill-opacity:1;" d="M 113.164062 18.65625 C 113.164062 20.648438 113.164062 22.640625 113.164062 24.636719 C 109.660156 24.863281 106.152344 25.082031 102.636719 25.285156 C 102.730469 24.570312 102.902344 23.875 103.15625 23.203125 C 103.585938 22.554688 104.019531 21.90625 104.453125 21.253906 C 104.875 20.9375 105.265625 20.589844 105.625 20.214844 C 106.148438 19.910156 106.667969 19.605469 107.183594 19.304688 C 107.8125 19.050781 108.464844 18.855469 109.136719 18.71875 C 110.476562 18.65625 111.820312 18.632812 113.164062 18.65625 Z M 113.164062 18.65625 "/>
</g>
<mask id="mask8">
  <g filter="url(#alpha)">
<rect x="0" y="0" width="156" height="78" style="fill:rgb(0%,0%,0%);fill-opacity:0.972549;stroke:none;"/>
  </g>
</mask>
<clipPath id="clip9">
  <rect x="0" y="0" width="156" height="78"/>
</clipPath>
<g id="surface29" clip-path="url(#clip9)">
<path style=" stroke:none;fill-rule:evenodd;fill:rgb(87.45098%,12.54902%,15.686275%);fill-opacity:1;" d="M 102.375 19.433594 C 103.453125 19.714844 104.535156 19.976562 105.625 20.214844 C 105.265625 20.589844 104.875 20.9375 104.453125 21.253906 C 103.761719 21.125 103.066406 20.996094 102.375 20.863281 C 102.375 20.386719 102.375 19.910156 102.375 19.433594 Z M 102.375 19.433594 "/>
</g>
<mask id="mask9">
  <g filter="url(#alpha)">
<rect x="0" y="0" width="156" height="78" style="fill:rgb(0%,0%,0%);fill-opacity:0.960784;stroke:none;"/>
  </g>
</mask>
<clipPath id="clip10">
  <rect x="0" y="0" width="156" height="78"/>
</clipPath>
<g id="surface32" clip-path="url(#clip10)">
<path style=" stroke:none;fill-rule:evenodd;fill:rgb(83.529412%,12.156863%,15.686275%);fill-opacity:1;" d="M 16.316406 21.125 C 17.15625 21.464844 18.023438 21.722656 18.914062 21.90625 C 17.519531 23.578125 16.652344 25.484375 16.316406 27.625 C 16.316406 25.457031 16.316406 23.292969 16.316406 21.125 Z M 16.316406 21.125 "/>
</g>
<mask id="mask10">
  <g filter="url(#alpha)">
<rect x="0" y="0" width="156" height="78" style="fill:rgb(0%,0%,0%);fill-opacity:0.941176;stroke:none;"/>
  </g>
</mask>
<clipPath id="clip11">
  <rect x="0" y="0" width="156" height="78"/>
</clipPath>
<g id="surface35" clip-path="url(#clip11)">
<path style=" stroke:none;fill-rule:evenodd;fill:rgb(84.705882%,12.156863%,15.686275%);fill-opacity:1;" d="M 102.375 20.863281 C 103.066406 20.996094 103.761719 21.125 104.453125 21.253906 C 104.019531 21.90625 103.585938 22.554688 103.15625 23.203125 C 102.886719 23.203125 102.625 23.160156 102.375 23.074219 C 102.375 22.339844 102.375 21.601562 102.375 20.863281 Z M 102.375 20.863281 "/>
</g>
<mask id="mask11">
  <g filter="url(#alpha)">
<rect x="0" y="0" width="156" height="78" style="fill:rgb(0%,0%,0%);fill-opacity:0.878431;stroke:none;"/>
  </g>
</mask>
<clipPath id="clip12">
  <rect x="0" y="0" width="156" height="78"/>
</clipPath>
<g id="surface38" clip-path="url(#clip12)">
<path style=" stroke:none;fill-rule:evenodd;fill:rgb(81.176471%,12.156863%,16.078431%);fill-opacity:1;" d="M 102.375 23.074219 C 102.625 23.160156 102.886719 23.203125 103.15625 23.203125 C 102.902344 23.875 102.730469 24.570312 102.636719 25.285156 C 102.546875 25.457031 102.460938 25.632812 102.375 25.804688 C 102.375 24.894531 102.375 23.984375 102.375 23.074219 Z M 102.375 23.074219 "/>
</g>
<mask id="mask12">
  <g filter="url(#alpha)">
<rect x="0" y="0" width="156" height="78" style="fill:rgb(0%,0%,0%);fill-opacity:0.992157;stroke:none;"/>
  </g>
</mask>
<clipPath id="clip13">
  <rect x="0" y="0" width="156" height="78"/>
</clipPath>
<g id="surface41" clip-path="url(#clip13)">
<path style=" stroke:none;fill-rule:evenodd;fill:rgb(72.156863%,12.156863%,16.078431%);fill-opacity:1;" d="M 113.164062 24.636719 C 113.164062 25.457031 113.164062 26.28125 113.164062 27.105469 C 109.570312 27.304688 105.972656 27.480469 102.375 27.625 C 102.375 27.019531 102.375 26.410156 102.375 25.804688 C 102.460938 25.632812 102.546875 25.457031 102.636719 25.285156 C 106.152344 25.082031 109.660156 24.863281 113.164062 24.636719 Z M 113.164062 24.636719 "/>
</g>
<mask id="mask13">
  <g filter="url(#alpha)">
<rect x="0" y="0" width="156" height="78" style="fill:rgb(0%,0%,0%);fill-opacity:0.988235;stroke:none;"/>
  </g>
</mask>
<clipPath id="clip14">
  <rect x="0" y="0" width="156" height="78"/>
</clipPath>
<g id="surface44" clip-path="url(#clip14)">
<path style=" stroke:none;fill-rule:evenodd;fill:rgb(89.803922%,12.156863%,15.686275%);fill-opacity:1;" d="M 130.976562 25.285156 C 134.441406 26.152344 137.90625 27.019531 141.375 27.886719 C 141.304688 28.308594 141.171875 28.695312 140.984375 29.054688 C 137.566406 28.210938 134.144531 27.386719 130.714844 26.585938 C 130.882812 26.171875 130.96875 25.738281 130.976562 25.285156 Z M 130.976562 25.285156 "/>
</g>
<mask id="mask14">
  <g filter="url(#alpha)">
<rect x="0" y="0" width="156" height="78" style="fill:rgb(0%,0%,0%);fill-opacity:0.988235;stroke:none;"/>
  </g>
</mask>
<clipPath id="clip15">
  <rect x="0" y="0" width="156" height="78"/>
</clipPath>
<g id="surface47" clip-path="url(#clip15)">
<path style=" stroke:none;fill-rule:evenodd;fill:rgb(89.803922%,12.156863%,15.686275%);fill-opacity:1;" d="M 47.773438 25.546875 C 51.785156 26.898438 55.816406 28.195312 59.863281 29.445312 C 59.945312 30.226562 60.03125 31.007812 60.125 31.785156 C 56.386719 30.597656 52.660156 29.382812 48.945312 28.144531 C 48.558594 27.289062 48.171875 26.421875 47.773438 25.546875 Z M 47.773438 25.546875 "/>
</g>
<mask id="mask15">
  <g filter="url(#alpha)">
<rect x="0" y="0" width="156" height="78" style="fill:rgb(0%,0%,0%);fill-opacity:0.988235;stroke:none;"/>
  </g>
</mask>
<clipPath id="clip16">
  <rect x="0" y="0" width="156" height="78"/>
</clipPath>
<g id="surface50" clip-path="url(#clip16)">
<path style=" stroke:none;fill-rule:evenodd;fill:rgb(74.509804%,12.156863%,16.078431%);fill-opacity:1;" d="M 113.164062 27.105469 C 113.164062 27.886719 113.164062 28.664062 113.164062 29.445312 C 109.570312 29.675781 105.976562 29.890625 102.375 30.09375 C 102.375 29.273438 102.375 28.449219 102.375 27.625 C 105.972656 27.480469 109.570312 27.304688 113.164062 27.105469 Z M 113.164062 27.105469 "/>
</g>
<mask id="mask16">
  <g filter="url(#alpha)">
<rect x="0" y="0" width="156" height="78" style="fill:rgb(0%,0%,0%);fill-opacity:0.988235;stroke:none;"/>
  </g>
</mask>
<clipPath id="clip17">
  <rect x="0" y="0" width="156" height="78"/>
</clipPath>
<g id="surface53" clip-path="url(#clip17)">
<path style=" stroke:none;fill-rule:evenodd;fill:rgb(87.45098%,12.54902%,15.686275%);fill-opacity:1;" d="M 130.714844 26.585938 C 134.144531 27.386719 137.566406 28.210938 140.984375 29.054688 C 140.960938 29.523438 140.828125 29.957031 140.59375 30.355469 C 137.128906 29.488281 133.660156 28.621094 130.195312 27.753906 C 130.40625 27.378906 130.578125 26.992188 130.714844 26.585938 Z M 130.714844 26.585938 "/>
</g>
<mask id="mask17">
  <g filter="url(#alpha)">
<rect x="0" y="0" width="156" height="78" style="fill:rgb(0%,0%,0%);fill-opacity:0.988235;stroke:none;"/>
  </g>
</mask>
<clipPath id="clip18">
  <rect x="0" y="0" width="156" height="78"/>
</clipPath>
<g id="surface56" clip-path="url(#clip18)">
<path style=" stroke:none;fill-rule:evenodd;fill:rgb(85.882353%,12.156863%,15.686275%);fill-opacity:1;" d="M 130.195312 27.753906 C 133.660156 28.621094 137.128906 29.488281 140.59375 30.355469 C 140.542969 30.585938 140.457031 30.804688 140.335938 31.003906 C 136.78125 30.136719 133.226562 29.273438 129.675781 28.40625 C 129.851562 28.183594 130.027344 27.96875 130.195312 27.753906 Z M 130.195312 27.753906 "/>
</g>
<mask id="mask18">
  <g filter="url(#alpha)">
<rect x="0" y="0" width="156" height="78" style="fill:rgb(0%,0%,0%);fill-opacity:0.984314;stroke:none;"/>
  </g>
</mask>
<clipPath id="clip19">
  <rect x="0" y="0" width="156" height="78"/>
</clipPath>
<g id="surface59" clip-path="url(#clip19)">
<path style=" stroke:none;fill-rule:evenodd;fill:rgb(88.235294%,12.54902%,15.686275%);fill-opacity:1;" d="M 48.945312 28.144531 C 52.660156 29.382812 56.386719 30.597656 60.125 31.785156 C 60.125 32.132812 60.125 32.476562 60.125 32.824219 C 56.484375 31.65625 52.84375 30.484375 49.203125 29.316406 C 49.097656 28.929688 49.011719 28.539062 48.945312 28.144531 Z M 48.945312 28.144531 "/>
</g>
<mask id="mask19">
  <g filter="url(#alpha)">
<rect x="0" y="0" width="156" height="78" style="fill:rgb(0%,0%,0%);fill-opacity:0.988235;stroke:none;"/>
  </g>
</mask>
<clipPath id="clip20">
  <rect x="0" y="0" width="156" height="78"/>
</clipPath>
<g id="surface62" clip-path="url(#clip20)">
<path style=" stroke:none;fill-rule:evenodd;fill:rgb(84.313725%,12.156863%,15.686275%);fill-opacity:1;" d="M 129.675781 28.40625 C 133.226562 29.273438 136.78125 30.136719 140.335938 31.003906 C 140.171875 31.542969 139.914062 32.019531 139.554688 32.433594 C 135.914062 31.480469 132.273438 30.527344 128.636719 29.574219 C 128.980469 29.183594 129.328125 28.796875 129.675781 28.40625 Z M 129.675781 28.40625 "/>
</g>
<mask id="mask20">
  <g filter="url(#alpha)">
<rect x="0" y="0" width="156" height="78" style="fill:rgb(0%,0%,0%);fill-opacity:0.988235;stroke:none;"/>
  </g>
</mask>
<clipPath id="clip21">
  <rect x="0" y="0" width="156" height="78"/>
</clipPath>
<g id="surface65" clip-path="url(#clip21)">
<path style=" stroke:none;fill-rule:evenodd;fill:rgb(87.058824%,12.54902%,15.686275%);fill-opacity:1;" d="M 49.203125 29.316406 C 52.84375 30.484375 56.484375 31.65625 60.125 32.824219 C 60.128906 33.265625 60.085938 33.699219 59.996094 34.125 C 56.5 32.945312 52.992188 31.820312 49.464844 30.746094 C 49.390625 30.265625 49.304688 29.789062 49.203125 29.316406 Z M 49.203125 29.316406 "/>
</g>
<mask id="mask21">
  <g filter="url(#alpha)">
<rect x="0" y="0" width="156" height="78" style="fill:rgb(0%,0%,0%);fill-opacity:0.988235;stroke:none;"/>
  </g>
</mask>
<clipPath id="clip22">
  <rect x="0" y="0" width="156" height="78"/>
</clipPath>
<g id="surface68" clip-path="url(#clip22)">
<path style=" stroke:none;fill-rule:evenodd;fill:rgb(76.862745%,12.54902%,16.078431%);fill-opacity:1;" d="M 113.164062 29.445312 C 113.164062 29.964844 113.164062 30.484375 113.164062 31.003906 C 113.164062 31.523438 113.164062 32.046875 113.164062 32.566406 C 113.164062 33.128906 113.164062 33.691406 113.164062 34.253906 C 113.164062 34.863281 113.164062 35.46875 113.164062 36.074219 C 113.046875 35.984375 113.003906 35.851562 113.035156 35.683594 C 113.035156 35.382812 113.035156 35.078125 113.035156 34.773438 C 113.035156 33.910156 113.035156 33.042969 113.035156 32.175781 C 109.480469 32.316406 105.925781 32.488281 102.375 32.695312 C 102.375 31.828125 102.375 30.960938 102.375 30.09375 C 105.976562 29.890625 109.570312 29.675781 113.164062 29.445312 Z M 113.164062 29.445312 "/>
</g>
<mask id="mask22">
  <g filter="url(#alpha)">
<rect x="0" y="0" width="156" height="78" style="fill:rgb(0%,0%,0%);fill-opacity:0.988235;stroke:none;"/>
  </g>
</mask>
<clipPath id="clip23">
  <rect x="0" y="0" width="156" height="78"/>
</clipPath>
<g id="surface71" clip-path="url(#clip23)">
<path style=" stroke:none;fill-rule:evenodd;fill:rgb(81.960784%,12.156863%,16.078431%);fill-opacity:1;" d="M 128.636719 29.574219 C 132.273438 30.527344 135.914062 31.480469 139.554688 32.433594 C 139.390625 32.894531 139.132812 33.285156 138.773438 33.605469 C 134.753906 32.6875 130.769531 31.691406 126.816406 30.613281 C 127.457031 30.316406 128.0625 29.96875 128.636719 29.574219 Z M 128.636719 29.574219 "/>
</g>
<mask id="mask23">
  <g filter="url(#alpha)">
<rect x="0" y="0" width="156" height="78" style="fill:rgb(0%,0%,0%);fill-opacity:0.992157;stroke:none;"/>
  </g>
</mask>
<clipPath id="clip24">
  <rect x="0" y="0" width="156" height="78"/>
</clipPath>
<g id="surface74" clip-path="url(#clip24)">
<path style=" stroke:none;fill-rule:evenodd;fill:rgb(72.156863%,12.156863%,16.078431%);fill-opacity:1;" d="M 26.714844 30.484375 C 26.714844 31.046875 26.714844 31.613281 26.714844 32.175781 C 23.25 32.53125 19.78125 32.878906 16.316406 33.214844 C 16.316406 32.652344 16.316406 32.089844 16.316406 31.523438 C 19.777344 31.148438 23.246094 30.804688 26.714844 30.484375 Z M 26.714844 30.484375 "/>
</g>
<mask id="mask24">
  <g filter="url(#alpha)">
<rect x="0" y="0" width="156" height="78" style="fill:rgb(0%,0%,0%);fill-opacity:0.984314;stroke:none;"/>
  </g>
</mask>
<clipPath id="clip25">
  <rect x="0" y="0" width="156" height="78"/>
</clipPath>
<g id="surface77" clip-path="url(#clip25)">
<path style=" stroke:none;fill-rule:evenodd;fill:rgb(79.215686%,12.54902%,16.078431%);fill-opacity:1;" d="M 126.816406 30.613281 C 130.769531 31.691406 134.753906 32.6875 138.773438 33.605469 C 138.484375 34.199219 138.09375 34.71875 137.605469 35.164062 C 132.121094 33.816406 126.660156 32.429688 121.226562 31.003906 C 122.960938 30.992188 124.695312 30.925781 126.425781 30.808594 C 126.558594 30.742188 126.6875 30.679688 126.816406 30.613281 Z M 126.816406 30.613281 "/>
</g>
<mask id="mask25">
  <g filter="url(#alpha)">
<rect x="0" y="0" width="156" height="78" style="fill:rgb(0%,0%,0%);fill-opacity:0.992157;stroke:none;"/>
  </g>
</mask>
<clipPath id="clip26">
  <rect x="0" y="0" width="156" height="78"/>
</clipPath>
<g id="surface80" clip-path="url(#clip26)">
<path style=" stroke:none;fill-rule:evenodd;fill:rgb(85.882353%,12.156863%,15.686275%);fill-opacity:1;" d="M 49.464844 30.746094 C 52.992188 31.820312 56.5 32.945312 59.996094 34.125 C 60.035156 34.542969 59.992188 34.933594 59.863281 35.296875 C 56.433594 34.238281 53.011719 33.15625 49.59375 32.046875 C 49.550781 31.613281 49.507812 31.179688 49.464844 30.746094 Z M 49.464844 30.746094 "/>
</g>
<mask id="mask26">
  <g filter="url(#alpha)">
<rect x="0" y="0" width="156" height="78" style="fill:rgb(0%,0%,0%);fill-opacity:0.984314;stroke:none;"/>
  </g>
</mask>
<clipPath id="clip27">
  <rect x="0" y="0" width="156" height="78"/>
</clipPath>
<g id="surface83" clip-path="url(#clip27)">
<path style=" stroke:none;fill-rule:evenodd;fill:rgb(76.862745%,12.54902%,16.078431%);fill-opacity:1;" d="M 113.945312 31.003906 C 116.371094 31.003906 118.796875 31.003906 121.226562 31.003906 C 126.660156 32.429688 132.121094 33.816406 137.605469 35.164062 C 137.167969 35.734375 136.648438 36.210938 136.046875 36.59375 C 128.65625 34.769531 121.289062 32.90625 113.945312 31.003906 Z M 113.945312 31.003906 "/>
</g>
<mask id="mask27">
  <g filter="url(#alpha)">
<rect x="0" y="0" width="156" height="78" style="fill:rgb(0%,0%,0%);fill-opacity:0.996078;stroke:none;"/>
  </g>
</mask>
<clipPath id="clip28">
  <rect x="0" y="0" width="156" height="78"/>
</clipPath>
<g id="surface86" clip-path="url(#clip28)">
<path style=" stroke:none;fill-rule:evenodd;fill:rgb(74.509804%,12.156863%,16.078431%);fill-opacity:1;" d="M 113.164062 31.003906 C 113.425781 31.003906 113.683594 31.003906 113.945312 31.003906 C 121.289062 32.90625 128.65625 34.769531 136.046875 36.59375 C 135.558594 37.121094 134.992188 37.554688 134.355469 37.894531 C 127.320312 36.0625 120.257812 34.285156 113.164062 32.566406 C 113.164062 32.046875 113.164062 31.523438 113.164062 31.003906 Z M 113.164062 31.003906 "/>
</g>
<mask id="mask28">
  <g filter="url(#alpha)">
<rect x="0" y="0" width="156" height="78" style="fill:rgb(0%,0%,0%);fill-opacity:0.992157;stroke:none;"/>
  </g>
</mask>
<clipPath id="clip29">
  <rect x="0" y="0" width="156" height="78"/>
</clipPath>
<g id="surface89" clip-path="url(#clip29)">
<path style=" stroke:none;fill-rule:evenodd;fill:rgb(84.313725%,12.156863%,15.686275%);fill-opacity:1;" d="M 49.59375 32.046875 C 53.011719 33.15625 56.433594 34.238281 59.863281 35.296875 C 59.851562 36.140625 59.722656 36.964844 59.476562 37.765625 C 56.136719 36.726562 52.800781 35.683594 49.464844 34.644531 C 49.535156 33.78125 49.582031 32.914062 49.59375 32.046875 Z M 49.59375 32.046875 "/>
</g>
<mask id="mask29">
  <g filter="url(#alpha)">
<rect x="0" y="0" width="156" height="78" style="fill:rgb(0%,0%,0%);fill-opacity:0.988235;stroke:none;"/>
  </g>
</mask>
<clipPath id="clip30">
  <rect x="0" y="0" width="156" height="78"/>
</clipPath>
<g id="surface92" clip-path="url(#clip30)">
<path style=" stroke:none;fill-rule:evenodd;fill:rgb(74.509804%,12.156863%,16.078431%);fill-opacity:1;" d="M 26.714844 32.175781 C 26.714844 32.738281 26.714844 33.300781 26.714844 33.863281 C 23.238281 34.21875 19.773438 34.609375 16.316406 35.035156 C 16.316406 34.429688 16.316406 33.820312 16.316406 33.214844 C 19.78125 32.878906 23.25 32.53125 26.714844 32.175781 Z M 26.714844 32.175781 "/>
</g>
<mask id="mask30">
  <g filter="url(#alpha)">
<rect x="0" y="0" width="156" height="78" style="fill:rgb(0%,0%,0%);fill-opacity:0.992157;stroke:none;"/>
  </g>
</mask>
<clipPath id="clip31">
  <rect x="0" y="0" width="156" height="78"/>
</clipPath>
<g id="surface95" clip-path="url(#clip31)">
<path style=" stroke:none;fill-rule:evenodd;fill:rgb(79.607843%,12.54902%,16.078431%);fill-opacity:1;" d="M 113.035156 34.773438 C 109.480469 34.945312 105.929688 35.117188 102.375 35.296875 C 102.375 34.429688 102.375 33.5625 102.375 32.695312 C 105.925781 32.488281 109.480469 32.316406 113.035156 32.175781 C 113.035156 33.042969 113.035156 33.910156 113.035156 34.773438 Z M 113.035156 34.773438 "/>
</g>
<mask id="mask31">
  <g filter="url(#alpha)">
<rect x="0" y="0" width="156" height="78" style="fill:rgb(0%,0%,0%);fill-opacity:0.996078;stroke:none;"/>
  </g>
</mask>
<clipPath id="clip32">
  <rect x="0" y="0" width="156" height="78"/>
</clipPath>
<g id="surface98" clip-path="url(#clip32)">
<path style=" stroke:none;fill-rule:evenodd;fill:rgb(72.156863%,12.156863%,16.078431%);fill-opacity:1;" d="M 113.164062 32.566406 C 120.257812 34.285156 127.320312 36.0625 134.355469 37.894531 C 133.699219 38.308594 133.003906 38.65625 132.273438 38.933594 C 125.910156 37.355469 119.539062 35.792969 113.164062 34.253906 C 113.164062 33.691406 113.164062 33.128906 113.164062 32.566406 Z M 113.164062 32.566406 "/>
</g>
<mask id="mask32">
  <g filter="url(#alpha)">
<rect x="0" y="0" width="156" height="78" style="fill:rgb(0%,0%,0%);fill-opacity:0.992157;stroke:none;"/>
  </g>
</mask>
<clipPath id="clip33">
  <rect x="0" y="0" width="156" height="78"/>
</clipPath>
<g id="surface101" clip-path="url(#clip33)">
<path style=" stroke:none;fill-rule:evenodd;fill:rgb(76.862745%,12.54902%,16.078431%);fill-opacity:1;" d="M 26.714844 33.863281 C 26.714844 34.472656 26.714844 35.078125 26.714844 35.683594 C 23.257812 36.109375 19.789062 36.5 16.316406 36.855469 C 16.316406 36.25 16.316406 35.640625 16.316406 35.035156 C 19.773438 34.609375 23.238281 34.21875 26.714844 33.863281 Z M 26.714844 33.863281 "/>
</g>
<mask id="mask33">
  <g filter="url(#alpha)">
<rect x="0" y="0" width="156" height="78" style="fill:rgb(0%,0%,0%);fill-opacity:0.988235;stroke:none;"/>
  </g>
</mask>
<clipPath id="clip34">
  <rect x="0" y="0" width="156" height="78"/>
</clipPath>
<g id="surface104" clip-path="url(#clip34)">
<path style=" stroke:none;fill-rule:evenodd;fill:rgb(69.803922%,12.156863%,16.078431%);fill-opacity:1;" d="M 113.164062 34.253906 C 119.539062 35.792969 125.910156 37.355469 132.273438 38.933594 C 130.851562 39.648438 129.335938 40.105469 127.726562 40.300781 C 124.347656 40.46875 120.96875 40.53125 117.585938 40.496094 C 117.078125 40.367188 116.558594 40.234375 116.023438 40.105469 C 115.511719 39.761719 114.988281 39.414062 114.464844 39.066406 C 113.941406 38.453125 113.550781 37.757812 113.296875 36.984375 C 113.230469 36.683594 113.1875 36.382812 113.164062 36.074219 C 113.164062 35.46875 113.164062 34.863281 113.164062 34.253906 Z M 113.164062 34.253906 "/>
</g>
<mask id="mask34">
  <g filter="url(#alpha)">
<rect x="0" y="0" width="156" height="78" style="fill:rgb(0%,0%,0%);fill-opacity:0.988235;stroke:none;"/>
  </g>
</mask>
<clipPath id="clip35">
  <rect x="0" y="0" width="156" height="78"/>
</clipPath>
<g id="surface107" clip-path="url(#clip35)">
<path style=" stroke:none;fill-rule:evenodd;fill:rgb(82.745098%,12.156863%,16.078431%);fill-opacity:1;" d="M 49.464844 34.644531 C 52.800781 35.683594 56.136719 36.726562 59.476562 37.765625 C 59.46875 38.132812 59.378906 38.480469 59.214844 38.804688 C 55.886719 37.695312 52.550781 36.613281 49.203125 35.554688 C 49.261719 35.230469 49.347656 34.925781 49.464844 34.644531 Z M 49.464844 34.644531 "/>
</g>
<mask id="mask35">
  <g filter="url(#alpha)">
<rect x="0" y="0" width="156" height="78" style="fill:rgb(0%,0%,0%);fill-opacity:0.992157;stroke:none;"/>
  </g>
</mask>
<clipPath id="clip36">
  <rect x="0" y="0" width="156" height="78"/>
</clipPath>
<g id="surface110" clip-path="url(#clip36)">
<path style=" stroke:none;fill-rule:evenodd;fill:rgb(81.176471%,12.156863%,16.078431%);fill-opacity:1;" d="M 113.035156 34.773438 C 113.035156 35.078125 113.035156 35.382812 113.035156 35.683594 C 109.480469 35.808594 105.925781 35.980469 102.375 36.203125 C 102.375 35.902344 102.375 35.597656 102.375 35.296875 C 105.929688 35.117188 109.480469 34.945312 113.035156 34.773438 Z M 113.035156 34.773438 "/>
</g>
<mask id="mask36">
  <g filter="url(#alpha)">
<rect x="0" y="0" width="156" height="78" style="fill:rgb(0%,0%,0%);fill-opacity:0.992157;stroke:none;"/>
  </g>
</mask>
<clipPath id="clip37">
  <rect x="0" y="0" width="156" height="78"/>
</clipPath>
<g id="surface113" clip-path="url(#clip37)">
<path style=" stroke:none;fill-rule:evenodd;fill:rgb(79.607843%,12.54902%,16.078431%);fill-opacity:1;" d="M 26.714844 35.683594 C 26.714844 36.335938 26.714844 36.984375 26.714844 37.636719 C 23.25 38.011719 19.785156 38.355469 16.316406 38.675781 C 16.316406 38.066406 16.316406 37.460938 16.316406 36.855469 C 19.789062 36.5 23.257812 36.109375 26.714844 35.683594 Z M 26.714844 35.683594 "/>
</g>
<mask id="mask37">
  <g filter="url(#alpha)">
<rect x="0" y="0" width="156" height="78" style="fill:rgb(0%,0%,0%);fill-opacity:0.992157;stroke:none;"/>
  </g>
</mask>
<clipPath id="clip38">
  <rect x="0" y="0" width="156" height="78"/>
</clipPath>
<g id="surface116" clip-path="url(#clip38)">
<path style=" stroke:none;fill-rule:evenodd;fill:rgb(82.352941%,12.156863%,16.078431%);fill-opacity:1;" d="M 113.035156 35.683594 C 113.003906 35.851562 113.046875 35.984375 113.164062 36.074219 C 113.1875 36.382812 113.230469 36.683594 113.296875 36.984375 C 109.652344 37.117188 106.011719 37.289062 102.375 37.503906 C 102.375 37.070312 102.375 36.636719 102.375 36.203125 C 105.925781 35.980469 109.480469 35.808594 113.035156 35.683594 Z M 113.035156 35.683594 "/>
</g>
<mask id="mask38">
  <g filter="url(#alpha)">
<rect x="0" y="0" width="156" height="78" style="fill:rgb(0%,0%,0%);fill-opacity:0.988235;stroke:none;"/>
  </g>
</mask>
<clipPath id="clip39">
  <rect x="0" y="0" width="156" height="78"/>
</clipPath>
<g id="surface119" clip-path="url(#clip39)">
<path style=" stroke:none;fill-rule:evenodd;fill:rgb(81.176471%,12.156863%,16.078431%);fill-opacity:1;" d="M 49.203125 35.554688 C 52.550781 36.613281 55.886719 37.695312 59.214844 38.804688 C 59.113281 39.289062 58.980469 39.765625 58.824219 40.234375 C 55.496094 39.125 52.160156 38.042969 48.816406 36.984375 C 48.972656 36.515625 49.101562 36.039062 49.203125 35.554688 Z M 49.203125 35.554688 "/>
</g>
<mask id="mask39">
  <g filter="url(#alpha)">
<rect x="0" y="0" width="156" height="78" style="fill:rgb(0%,0%,0%);fill-opacity:0.988235;stroke:none;"/>
  </g>
</mask>
<clipPath id="clip40">
  <rect x="0" y="0" width="156" height="78"/>
</clipPath>
<g id="surface122" clip-path="url(#clip40)">
<path style=" stroke:none;fill-rule:evenodd;fill:rgb(79.607843%,12.54902%,16.078431%);fill-opacity:1;" d="M 48.816406 36.984375 C 52.160156 38.042969 55.496094 39.125 58.824219 40.234375 C 58.472656 41.160156 58.082031 42.070312 57.65625 42.964844 C 54.273438 41.882812 50.894531 40.796875 47.515625 39.714844 C 48.050781 38.855469 48.484375 37.945312 48.816406 36.984375 Z M 48.816406 36.984375 "/>
</g>
<mask id="mask40">
  <g filter="url(#alpha)">
<rect x="0" y="0" width="156" height="78" style="fill:rgb(0%,0%,0%);fill-opacity:0.992157;stroke:none;"/>
  </g>
</mask>
<clipPath id="clip41">
  <rect x="0" y="0" width="156" height="78"/>
</clipPath>
<g id="surface125" clip-path="url(#clip41)">
<path style=" stroke:none;fill-rule:evenodd;fill:rgb(84.313725%,12.156863%,15.686275%);fill-opacity:1;" d="M 113.296875 36.984375 C 113.550781 37.757812 113.941406 38.453125 114.464844 39.066406 C 110.433594 39.257812 106.402344 39.476562 102.375 39.714844 C 102.375 38.976562 102.375 38.242188 102.375 37.503906 C 106.011719 37.289062 109.652344 37.117188 113.296875 36.984375 Z M 113.296875 36.984375 "/>
</g>
<mask id="mask41">
  <g filter="url(#alpha)">
<rect x="0" y="0" width="156" height="78" style="fill:rgb(0%,0%,0%);fill-opacity:0.992157;stroke:none;"/>
  </g>
</mask>
<clipPath id="clip42">
  <rect x="0" y="0" width="156" height="78"/>
</clipPath>
<g id="surface128" clip-path="url(#clip42)">
<path style=" stroke:none;fill-rule:evenodd;fill:rgb(81.960784%,12.156863%,16.078431%);fill-opacity:1;" d="M 26.714844 37.636719 C 26.714844 38.15625 26.714844 38.675781 26.714844 39.195312 C 23.25 39.574219 19.785156 39.921875 16.316406 40.234375 C 16.316406 39.714844 16.316406 39.195312 16.316406 38.675781 C 19.785156 38.355469 23.25 38.011719 26.714844 37.636719 Z M 26.714844 37.636719 "/>
</g>
<mask id="mask42">
  <g filter="url(#alpha)">
<rect x="0" y="0" width="156" height="78" style="fill:rgb(0%,0%,0%);fill-opacity:0.996078;stroke:none;"/>
  </g>
</mask>
<clipPath id="clip43">
  <rect x="0" y="0" width="156" height="78"/>
</clipPath>
<g id="surface131" clip-path="url(#clip43)">
<path style=" stroke:none;fill-rule:evenodd;fill:rgb(85.882353%,12.156863%,15.686275%);fill-opacity:1;" d="M 114.464844 39.066406 C 114.988281 39.414062 115.511719 39.761719 116.023438 40.105469 C 111.472656 40.289062 106.921875 40.507812 102.375 40.753906 C 102.375 40.410156 102.375 40.0625 102.375 39.714844 C 106.402344 39.476562 110.433594 39.257812 114.464844 39.066406 Z M 114.464844 39.066406 "/>
</g>
<mask id="mask43">
  <g filter="url(#alpha)">
<rect x="0" y="0" width="156" height="78" style="fill:rgb(0%,0%,0%);fill-opacity:0.992157;stroke:none;"/>
  </g>
</mask>
<clipPath id="clip44">
  <rect x="0" y="0" width="156" height="78"/>
</clipPath>
<g id="surface134" clip-path="url(#clip44)">
<path style=" stroke:none;fill-rule:evenodd;fill:rgb(84.313725%,12.156863%,15.686275%);fill-opacity:1;" d="M 26.714844 39.195312 C 26.714844 39.714844 26.714844 40.234375 26.714844 40.753906 C 23.25 41.136719 19.785156 41.484375 16.316406 41.796875 C 16.316406 41.273438 16.316406 40.753906 16.316406 40.234375 C 19.785156 39.921875 23.25 39.574219 26.714844 39.195312 Z M 26.714844 39.195312 "/>
</g>
<mask id="mask44">
  <g filter="url(#alpha)">
<rect x="0" y="0" width="156" height="78" style="fill:rgb(0%,0%,0%);fill-opacity:0.988235;stroke:none;"/>
  </g>
</mask>
<clipPath id="clip45">
  <rect x="0" y="0" width="156" height="78"/>
</clipPath>
<g id="surface137" clip-path="url(#clip45)">
<path style=" stroke:none;fill-rule:evenodd;fill:rgb(76.862745%,12.54902%,16.078431%);fill-opacity:1;" d="M 47.515625 39.714844 C 50.894531 40.796875 54.273438 41.882812 57.65625 42.964844 C 57.199219 43.878906 56.679688 44.746094 56.09375 45.566406 C 52.621094 44.464844 49.152344 43.335938 45.695312 42.183594 C 46.398438 41.429688 47.003906 40.609375 47.515625 39.714844 Z M 47.515625 39.714844 "/>
</g>
<mask id="mask45">
  <g filter="url(#alpha)">
<rect x="0" y="0" width="156" height="78" style="fill:rgb(0%,0%,0%);fill-opacity:0.988235;stroke:none;"/>
  </g>
</mask>
<clipPath id="clip46">
  <rect x="0" y="0" width="156" height="78"/>
</clipPath>
<g id="surface140" clip-path="url(#clip46)">
<path style=" stroke:none;fill-rule:evenodd;fill:rgb(87.058824%,12.54902%,15.686275%);fill-opacity:1;" d="M 116.023438 40.105469 C 116.558594 40.234375 117.078125 40.367188 117.585938 40.496094 C 116.113281 40.496094 114.636719 40.496094 113.164062 40.496094 C 113.164062 40.753906 113.164062 41.015625 113.164062 41.273438 C 109.5625 41.476562 105.964844 41.695312 102.375 41.925781 C 102.375 41.535156 102.375 41.144531 102.375 40.753906 C 106.921875 40.507812 111.472656 40.289062 116.023438 40.105469 Z M 116.023438 40.105469 "/>
</g>
<mask id="mask46">
  <g filter="url(#alpha)">
<rect x="0" y="0" width="156" height="78" style="fill:rgb(0%,0%,0%);fill-opacity:0.988235;stroke:none;"/>
  </g>
</mask>
<clipPath id="clip47">
  <rect x="0" y="0" width="156" height="78"/>
</clipPath>
<g id="surface143" clip-path="url(#clip47)">
<path style=" stroke:none;fill-rule:evenodd;fill:rgb(88.235294%,12.54902%,15.686275%);fill-opacity:1;" d="M 113.164062 41.273438 C 113.164062 41.578125 113.164062 41.882812 113.164062 42.183594 C 109.570312 42.375 105.972656 42.550781 102.375 42.703125 C 102.375 42.445312 102.375 42.183594 102.375 41.925781 C 105.964844 41.695312 109.5625 41.476562 113.164062 41.273438 Z M 113.164062 41.273438 "/>
</g>
<mask id="mask47">
  <g filter="url(#alpha)">
<rect x="0" y="0" width="156" height="78" style="fill:rgb(0%,0%,0%);fill-opacity:0.988235;stroke:none;"/>
  </g>
</mask>
<clipPath id="clip48">
  <rect x="0" y="0" width="156" height="78"/>
</clipPath>
<g id="surface146" clip-path="url(#clip48)">
<path style=" stroke:none;fill-rule:evenodd;fill:rgb(86.666667%,12.156863%,15.686275%);fill-opacity:1;" d="M 26.714844 40.753906 C 26.714844 41.273438 26.714844 41.796875 26.714844 42.316406 C 23.238281 42.667969 19.773438 43.058594 16.316406 43.484375 C 16.316406 42.921875 16.316406 42.359375 16.316406 41.796875 C 19.785156 41.484375 23.25 41.136719 26.714844 40.753906 Z M 26.714844 40.753906 "/>
</g>
<mask id="mask48">
  <g filter="url(#alpha)">
<rect x="0" y="0" width="156" height="78" style="fill:rgb(0%,0%,0%);fill-opacity:0.988235;stroke:none;"/>
  </g>
</mask>
<clipPath id="clip49">
  <rect x="0" y="0" width="156" height="78"/>
</clipPath>
<g id="surface149" clip-path="url(#clip49)">
<path style=" stroke:none;fill-rule:evenodd;fill:rgb(89.803922%,12.156863%,15.686275%);fill-opacity:1;" d="M 113.164062 42.183594 C 113.164062 42.792969 113.164062 43.398438 113.164062 44.003906 C 109.570312 44.234375 105.976562 44.453125 102.375 44.65625 C 102.375 44.003906 102.375 43.355469 102.375 42.703125 C 105.972656 42.550781 109.570312 42.375 113.164062 42.183594 Z M 113.164062 42.183594 "/>
</g>
<mask id="mask49">
  <g filter="url(#alpha)">
<rect x="0" y="0" width="156" height="78" style="fill:rgb(0%,0%,0%);fill-opacity:0.992157;stroke:none;"/>
  </g>
</mask>
<clipPath id="clip50">
  <rect x="0" y="0" width="156" height="78"/>
</clipPath>
<g id="surface152" clip-path="url(#clip50)">
<path style=" stroke:none;fill-rule:evenodd;fill:rgb(88.235294%,12.54902%,15.686275%);fill-opacity:1;" d="M 26.714844 42.316406 C 26.714844 42.53125 26.714844 42.75 26.714844 42.964844 C 23.25 43.328125 19.785156 43.675781 16.316406 44.003906 C 16.316406 43.832031 16.316406 43.660156 16.316406 43.484375 C 19.773438 43.058594 23.238281 42.667969 26.714844 42.316406 Z M 26.714844 42.316406 "/>
</g>
<mask id="mask50">
  <g filter="url(#alpha)">
<rect x="0" y="0" width="156" height="78" style="fill:rgb(0%,0%,0%);fill-opacity:0.984314;stroke:none;"/>
  </g>
</mask>
<clipPath id="clip51">
  <rect x="0" y="0" width="156" height="78"/>
</clipPath>
<g id="surface155" clip-path="url(#clip51)">
<path style=" stroke:none;fill-rule:evenodd;fill:rgb(74.509804%,12.156863%,16.078431%);fill-opacity:1;" d="M 45.695312 42.183594 C 49.152344 43.335938 52.621094 44.464844 56.09375 45.566406 C 55.613281 46.445312 55.007812 47.222656 54.273438 47.90625 C 50.585938 46.617188 46.859375 45.402344 43.09375 44.265625 C 43.996094 43.625 44.863281 42.933594 45.695312 42.183594 Z M 45.695312 42.183594 "/>
</g>
<mask id="mask51">
  <g filter="url(#alpha)">
<rect x="0" y="0" width="156" height="78" style="fill:rgb(0%,0%,0%);fill-opacity:0.992157;stroke:none;"/>
  </g>
</mask>
<clipPath id="clip52">
  <rect x="0" y="0" width="156" height="78"/>
</clipPath>
<g id="surface158" clip-path="url(#clip52)">
<path style=" stroke:none;fill-rule:evenodd;fill:rgb(89.803922%,12.156863%,15.686275%);fill-opacity:1;" d="M 26.714844 42.964844 C 26.714844 43.398438 26.714844 43.832031 26.714844 44.265625 C 23.246094 44.636719 19.777344 45.027344 16.316406 45.433594 C 16.316406 44.957031 16.316406 44.480469 16.316406 44.003906 C 19.785156 43.675781 23.25 43.328125 26.714844 42.964844 Z M 26.714844 42.964844 "/>
</g>
<mask id="mask52">
  <g filter="url(#alpha)">
<rect x="0" y="0" width="156" height="78" style="fill:rgb(0%,0%,0%);fill-opacity:0.984314;stroke:none;"/>
  </g>
</mask>
<clipPath id="clip53">
  <rect x="0" y="0" width="156" height="78"/>
</clipPath>
<g id="surface161" clip-path="url(#clip53)">
<path style=" stroke:none;fill-rule:evenodd;fill:rgb(92.156863%,12.156863%,15.294118%);fill-opacity:1;" d="M 113.164062 44.003906 C 113.164062 48.035156 113.164062 52.066406 113.164062 56.09375 C 109.566406 56.09375 105.972656 56.09375 102.375 56.09375 C 102.375 52.28125 102.375 48.46875 102.375 44.65625 C 105.976562 44.453125 109.570312 44.234375 113.164062 44.003906 Z M 113.164062 44.003906 "/>
</g>
<mask id="mask53">
  <g filter="url(#alpha)">
<rect x="0" y="0" width="156" height="78" style="fill:rgb(0%,0%,0%);fill-opacity:0.988235;stroke:none;"/>
  </g>
</mask>
<clipPath id="clip54">
  <rect x="0" y="0" width="156" height="78"/>
</clipPath>
<g id="surface164" clip-path="url(#clip54)">
<path style=" stroke:none;fill-rule:evenodd;fill:rgb(92.156863%,12.156863%,15.294118%);fill-opacity:1;" d="M 26.714844 44.265625 C 26.714844 45 26.714844 45.738281 26.714844 46.476562 C 26.84375 50.699219 28.835938 53.667969 32.695312 55.378906 C 33.597656 55.722656 34.507812 55.960938 35.425781 56.09375 C 29.054688 56.09375 22.683594 56.09375 16.316406 56.09375 C 16.316406 52.542969 16.316406 48.988281 16.316406 45.433594 C 19.777344 45.027344 23.246094 44.636719 26.714844 44.265625 Z M 26.714844 44.265625 "/>
</g>
<mask id="mask54">
  <g filter="url(#alpha)">
<rect x="0" y="0" width="156" height="78" style="fill:rgb(0%,0%,0%);fill-opacity:0.984314;stroke:none;"/>
  </g>
</mask>
<clipPath id="clip55">
  <rect x="0" y="0" width="156" height="78"/>
</clipPath>
<g id="surface167" clip-path="url(#clip55)">
<path style=" stroke:none;fill-rule:evenodd;fill:rgb(72.156863%,12.156863%,16.078431%);fill-opacity:1;" d="M 43.09375 44.265625 C 46.859375 45.402344 50.585938 46.617188 54.273438 47.90625 C 53.710938 48.726562 53.019531 49.421875 52.195312 49.984375 C 47.960938 48.65625 43.757812 47.269531 39.585938 45.824219 C 40.835938 45.480469 42.007812 44.960938 43.09375 44.265625 Z M 43.09375 44.265625 "/>
</g>
<mask id="mask55">
  <g filter="url(#alpha)">
<rect x="0" y="0" width="156" height="78" style="fill:rgb(0%,0%,0%);fill-opacity:0.988235;stroke:none;"/>
  </g>
</mask>
<clipPath id="clip56">
  <rect x="0" y="0" width="156" height="78"/>
</clipPath>
<g id="surface170" clip-path="url(#clip56)">
<path style=" stroke:none;fill-rule:evenodd;fill:rgb(69.803922%,12.156863%,16.078431%);fill-opacity:1;" d="M 39.585938 45.824219 C 43.757812 47.269531 47.960938 48.65625 52.195312 49.984375 C 47.449219 54.238281 41.859375 56.273438 35.425781 56.09375 C 34.507812 55.960938 33.597656 55.722656 32.695312 55.378906 C 28.835938 53.667969 26.84375 50.699219 26.714844 46.476562 C 30.09375 46.496094 33.476562 46.476562 36.855469 46.410156 C 37.792969 46.324219 38.703125 46.132812 39.585938 45.824219 Z M 39.585938 45.824219 "/>
</g>
<mask id="mask56">
  <g filter="url(#alpha)">
<rect x="0" y="0" width="156" height="78" style="fill:rgb(0%,0%,0%);fill-opacity:0.917647;stroke:none;"/>
  </g>
</mask>
<clipPath id="clip57">
  <rect x="0" y="0" width="156" height="78"/>
</clipPath>
<g id="surface173" clip-path="url(#clip57)">
<path style=" stroke:none;fill-rule:evenodd;fill:rgb(29.411765%,30.196078%,30.588235%);fill-opacity:1;" d="M 17.09375 61.683594 C 17.359375 61.664062 17.617188 61.6875 17.875 61.75 C 17.996094 61.800781 18.082031 61.886719 18.136719 62.011719 C 18.234375 62.632812 18.296875 63.261719 18.328125 63.894531 C 20.035156 63.339844 21.203125 63.902344 21.839844 65.585938 C 21.929688 67.792969 20.867188 68.8125 18.65625 68.640625 C 17.757812 68.304688 17.171875 67.679688 16.898438 66.753906 C 16.8125 65.152344 16.8125 63.546875 16.898438 61.945312 C 16.992188 61.875 17.058594 61.789062 17.09375 61.683594 Z M 18.914062 65.066406 C 20.195312 64.980469 20.695312 65.542969 20.410156 66.753906 C 19.667969 67.621094 18.976562 67.578125 18.328125 66.625 C 18.132812 65.941406 18.328125 65.421875 18.914062 65.066406 Z M 18.914062 65.066406 "/>
</g>
<mask id="mask57">
  <g filter="url(#alpha)">
<rect x="0" y="0" width="156" height="78" style="fill:rgb(0%,0%,0%);fill-opacity:0.905882;stroke:none;"/>
  </g>
</mask>
<clipPath id="clip58">
  <rect x="0" y="0" width="156" height="78"/>
</clipPath>
<g id="surface176" clip-path="url(#clip58)">
<path style=" stroke:none;fill-rule:evenodd;fill:rgb(29.411765%,30.196078%,30.588235%);fill-opacity:1;" d="M 41.664062 61.683594 C 42.121094 61.605469 42.488281 61.734375 42.769531 62.074219 C 42.890625 63.730469 42.847656 65.375 42.640625 67.015625 C 42.058594 68.355469 41.039062 68.898438 39.585938 68.640625 C 38.066406 68.050781 37.480469 66.945312 37.828125 65.324219 C 38.535156 63.796875 39.683594 63.320312 41.273438 63.894531 C 41.382812 63.25 41.449219 62.597656 41.46875 61.945312 C 41.5625 61.875 41.628906 61.789062 41.664062 61.683594 Z M 39.714844 65.066406 C 40.8125 64.929688 41.355469 65.40625 41.339844 66.496094 C 41.019531 67.222656 40.480469 67.460938 39.714844 67.210938 C 38.855469 66.496094 38.855469 65.78125 39.714844 65.066406 Z M 39.714844 65.066406 "/>
</g>
<mask id="mask58">
  <g filter="url(#alpha)">
<rect x="0" y="0" width="156" height="78" style="fill:rgb(0%,0%,0%);fill-opacity:0.839216;stroke:none;"/>
  </g>
</mask>
<clipPath id="clip59">
  <rect x="0" y="0" width="156" height="78"/>
</clipPath>
<g id="surface179" clip-path="url(#clip59)">
<path style=" stroke:none;fill-rule:evenodd;fill:rgb(29.411765%,30.196078%,30.588235%);fill-opacity:1;" d="M 81.316406 61.683594 C 82.441406 61.578125 82.785156 62.03125 82.355469 63.050781 C 81.597656 63.429688 81.121094 63.210938 80.925781 62.398438 C 81.007812 62.128906 81.136719 61.890625 81.316406 61.683594 Z M 81.316406 61.683594 "/>
</g>
<mask id="mask59">
  <g filter="url(#alpha)">
<rect x="0" y="0" width="156" height="78" style="fill:rgb(0%,0%,0%);fill-opacity:0.92549;stroke:none;"/>
  </g>
</mask>
<clipPath id="clip60">
  <rect x="0" y="0" width="156" height="78"/>
</clipPath>
<g id="surface182" clip-path="url(#clip60)">
<path style=" stroke:none;fill-rule:evenodd;fill:rgb(29.411765%,30.196078%,30.588235%);fill-opacity:1;" d="M 30.09375 62.203125 C 30.546875 62.125 30.914062 62.253906 31.199219 62.59375 C 31.285156 64.546875 31.285156 66.496094 31.199219 68.445312 C 30.714844 68.570312 30.21875 68.613281 29.703125 68.574219 C 29.683594 66.582031 29.703125 64.589844 29.769531 62.59375 C 29.859375 62.441406 29.96875 62.308594 30.09375 62.203125 Z M 30.09375 62.203125 "/>
</g>
<mask id="mask60">
  <g filter="url(#alpha)">
<rect x="0" y="0" width="156" height="78" style="fill:rgb(0%,0%,0%);fill-opacity:0.937255;stroke:none;"/>
  </g>
</mask>
<clipPath id="clip61">
  <rect x="0" y="0" width="156" height="78"/>
</clipPath>
<g id="surface185" clip-path="url(#clip61)">
<path style=" stroke:none;fill-rule:evenodd;fill:rgb(29.411765%,30.196078%,30.588235%);fill-opacity:1;" d="M 65.324219 62.203125 C 66.539062 62.183594 67.753906 62.203125 68.964844 62.269531 C 70.109375 63.007812 70.367188 63.980469 69.746094 65.195312 C 70.605469 66.210938 70.605469 67.230469 69.746094 68.25 C 69.570312 68.335938 69.398438 68.421875 69.226562 68.511719 C 67.96875 68.597656 66.710938 68.597656 65.453125 68.511719 C 65.351562 68.46875 65.261719 68.40625 65.195312 68.316406 C 65.046875 66.414062 65.023438 64.507812 65.128906 62.59375 C 65.195312 62.460938 65.261719 62.332031 65.324219 62.203125 Z M 66.625 63.636719 C 67.234375 63.613281 67.839844 63.636719 68.445312 63.699219 C 68.792969 64.003906 68.792969 64.308594 68.445312 64.609375 C 67.839844 64.675781 67.234375 64.695312 66.625 64.675781 C 66.625 64.328125 66.625 63.980469 66.625 63.636719 Z M 66.625 65.976562 C 67.234375 65.953125 67.839844 65.976562 68.445312 66.039062 C 68.96875 66.296875 69.054688 66.644531 68.703125 67.078125 C 68.011719 67.144531 67.320312 67.167969 66.625 67.144531 C 66.625 66.753906 66.625 66.363281 66.625 65.976562 Z M 66.625 65.976562 "/>
</g>
<mask id="mask61">
  <g filter="url(#alpha)">
<rect x="0" y="0" width="156" height="78" style="fill:rgb(0%,0%,0%);fill-opacity:0.917647;stroke:none;"/>
  </g>
</mask>
<clipPath id="clip62">
  <rect x="0" y="0" width="156" height="78"/>
</clipPath>
<g id="surface188" clip-path="url(#clip62)">
<path style=" stroke:none;fill-rule:evenodd;fill:rgb(29.411765%,30.196078%,30.588235%);fill-opacity:1;" d="M 60.125 62.335938 C 60.84375 62.527344 61.105469 63.003906 60.90625 63.765625 C 61.296875 63.742188 61.6875 63.765625 62.074219 63.828125 C 62.421875 64.21875 62.421875 64.609375 62.074219 65 C 61.6875 65.066406 61.296875 65.085938 60.90625 65.066406 C 60.882812 65.714844 60.90625 66.367188 60.96875 67.015625 C 61.308594 67.210938 61.675781 67.320312 62.074219 67.339844 C 62.574219 68.296875 62.269531 68.707031 61.164062 68.574219 C 60.496094 68.710938 60 68.496094 59.671875 67.925781 C 59.488281 66.984375 59.425781 66.03125 59.476562 65.066406 C 59.03125 65.035156 58.773438 64.796875 58.695312 64.351562 C 58.828125 63.976562 59.089844 63.78125 59.476562 63.765625 C 59.328125 63.085938 59.546875 62.609375 60.125 62.335938 Z M 60.125 62.335938 "/>
</g>
<mask id="mask62">
  <g filter="url(#alpha)">
<rect x="0" y="0" width="156" height="78" style="fill:rgb(0%,0%,0%);fill-opacity:0.901961;stroke:none;"/>
  </g>
</mask>
<clipPath id="clip63">
  <rect x="0" y="0" width="156" height="78"/>
</clipPath>
<g id="surface191" clip-path="url(#clip63)">
<path style=" stroke:none;fill-rule:evenodd;fill:rgb(29.411765%,30.196078%,30.588235%);fill-opacity:1;" d="M 22.554688 63.636719 C 22.914062 63.597656 23.242188 63.683594 23.53125 63.894531 C 23.859375 64.664062 24.164062 65.445312 24.441406 66.234375 C 24.800781 65.363281 25.210938 64.519531 25.675781 63.699219 C 26.34375 63.480469 26.734375 63.71875 26.84375 64.414062 C 26.167969 66.074219 25.449219 67.722656 24.699219 69.355469 C 24.203125 70.265625 23.445312 70.632812 22.425781 70.460938 C 21.777344 69.636719 21.996094 69.160156 23.074219 69.03125 C 23.394531 68.796875 23.609375 68.496094 23.726562 68.121094 C 23.207031 66.980469 22.710938 65.832031 22.230469 64.675781 C 22.101562 64.25 22.210938 63.902344 22.554688 63.636719 Z M 22.554688 63.636719 "/>
</g>
<mask id="mask63">
  <g filter="url(#alpha)">
<rect x="0" y="0" width="156" height="78" style="fill:rgb(0%,0%,0%);fill-opacity:0.905882;stroke:none;"/>
  </g>
</mask>
<clipPath id="clip64">
  <rect x="0" y="0" width="156" height="78"/>
</clipPath>
<g id="surface194" clip-path="url(#clip64)">
<path style=" stroke:none;fill-rule:evenodd;fill:rgb(29.411765%,30.196078%,30.588235%);fill-opacity:1;" d="M 32.824219 63.636719 C 33.25 63.570312 33.59375 63.703125 33.863281 64.023438 C 34.785156 63.480469 35.675781 63.523438 36.53125 64.15625 C 36.695312 64.441406 36.824219 64.746094 36.921875 65.066406 C 37.007812 66.191406 37.007812 67.316406 36.921875 68.445312 C 36.480469 68.570312 36.023438 68.613281 35.554688 68.574219 C 35.578125 67.578125 35.554688 66.582031 35.488281 65.585938 C 35.035156 64.785156 34.515625 64.742188 33.929688 65.453125 C 33.863281 66.492188 33.84375 67.535156 33.863281 68.574219 C 33.386719 68.574219 32.910156 68.574219 32.433594 68.574219 C 32.414062 67.058594 32.433594 65.542969 32.5 64.023438 C 32.589844 63.871094 32.699219 63.738281 32.824219 63.636719 Z M 32.824219 63.636719 "/>
</g>
<mask id="mask64">
  <g filter="url(#alpha)">
<rect x="0" y="0" width="156" height="78" style="fill:rgb(0%,0%,0%);fill-opacity:0.905882;stroke:none;"/>
  </g>
</mask>
<clipPath id="clip65">
  <rect x="0" y="0" width="156" height="78"/>
</clipPath>
<g id="surface197" clip-path="url(#clip65)">
<path style=" stroke:none;fill-rule:evenodd;fill:rgb(29.411765%,30.196078%,30.588235%);fill-opacity:1;" d="M 45.175781 63.636719 C 47.777344 63.644531 48.753906 64.898438 48.101562 67.40625 C 47.183594 68.707031 45.992188 69.03125 44.523438 68.378906 C 43.449219 67.632812 43.082031 66.613281 43.421875 65.324219 C 43.738281 64.464844 44.324219 63.902344 45.175781 63.636719 Z M 45.304688 65.066406 C 46.433594 64.902344 46.976562 65.378906 46.929688 66.496094 C 46.617188 67.222656 46.074219 67.460938 45.304688 67.210938 C 44.445312 66.496094 44.445312 65.78125 45.304688 65.066406 Z M 45.304688 65.066406 "/>
</g>
<mask id="mask65">
  <g filter="url(#alpha)">
<rect x="0" y="0" width="156" height="78" style="fill:rgb(0%,0%,0%);fill-opacity:0.898039;stroke:none;"/>
  </g>
</mask>
<clipPath id="clip66">
  <rect x="0" y="0" width="156" height="78"/>
</clipPath>
<g id="surface200" clip-path="url(#clip66)">
<path style=" stroke:none;fill-rule:evenodd;fill:rgb(29.411765%,30.196078%,30.588235%);fill-opacity:1;" d="M 50.113281 63.636719 C 50.636719 63.613281 51.15625 63.636719 51.675781 63.699219 C 52.558594 63.839844 52.777344 64.273438 52.324219 65 C 51.859375 65.046875 51.402344 64.984375 50.960938 64.804688 C 50.703125 64.800781 50.507812 64.910156 50.375 65.128906 C 51 65.507812 51.648438 65.855469 52.324219 66.171875 C 53.046875 67.371094 52.742188 68.195312 51.414062 68.640625 C 50.433594 68.839844 49.542969 68.644531 48.75 68.054688 C 48.601562 67.660156 48.710938 67.378906 49.074219 67.210938 C 49.59375 67.273438 50.113281 67.382812 50.636719 67.535156 C 50.917969 67.558594 51.136719 67.453125 51.285156 67.210938 C 50.753906 66.859375 50.191406 66.554688 49.59375 66.300781 C 48.933594 65.746094 48.78125 65.074219 49.140625 64.285156 C 49.421875 63.984375 49.746094 63.765625 50.113281 63.636719 Z M 50.113281 63.636719 "/>
</g>
<mask id="mask66">
  <g filter="url(#alpha)">
<rect x="0" y="0" width="156" height="78" style="fill:rgb(0%,0%,0%);fill-opacity:0.909804;stroke:none;"/>
  </g>
</mask>
<clipPath id="clip67">
  <rect x="0" y="0" width="156" height="78"/>
</clipPath>
<g id="surface203" clip-path="url(#clip67)">
<path style=" stroke:none;fill-rule:evenodd;fill:rgb(29.411765%,30.196078%,30.588235%);fill-opacity:1;" d="M 55.054688 63.636719 C 55.730469 63.5625 56.359375 63.691406 56.941406 64.023438 C 57.367188 63.507812 57.800781 63.507812 58.238281 64.023438 C 58.347656 65.53125 58.324219 67.023438 58.175781 68.511719 C 57.679688 68.644531 57.222656 68.578125 56.808594 68.316406 C 55.222656 69.042969 54.054688 68.609375 53.300781 67.015625 C 52.96875 65.382812 53.550781 64.253906 55.054688 63.636719 Z M 55.183594 65.066406 C 56.316406 64.902344 56.855469 65.378906 56.808594 66.496094 C 56.496094 67.222656 55.957031 67.460938 55.183594 67.210938 C 54.328125 66.496094 54.328125 65.78125 55.183594 65.066406 Z M 55.183594 65.066406 "/>
</g>
<mask id="mask67">
  <g filter="url(#alpha)">
<rect x="0" y="0" width="156" height="78" style="fill:rgb(0%,0%,0%);fill-opacity:0.94902;stroke:none;"/>
  </g>
</mask>
<clipPath id="clip68">
  <rect x="0" y="0" width="156" height="78"/>
</clipPath>
<g id="surface206" clip-path="url(#clip68)">
<path style=" stroke:none;fill-rule:evenodd;fill:rgb(29.411765%,30.196078%,30.588235%);fill-opacity:1;" d="M 71.433594 63.636719 C 71.808594 63.578125 72.132812 63.664062 72.410156 63.894531 C 72.421875 64.902344 72.511719 65.898438 72.671875 66.886719 C 73.136719 67.390625 73.613281 67.390625 74.101562 66.886719 C 74.253906 65.894531 74.339844 64.898438 74.359375 63.894531 C 74.75 63.546875 75.140625 63.546875 75.53125 63.894531 C 75.59375 65.453125 75.617188 67.015625 75.59375 68.574219 C 75.160156 68.574219 74.726562 68.574219 74.296875 68.574219 C 74.3125 68.4375 74.292969 68.308594 74.230469 68.183594 C 73.285156 68.90625 72.375 68.863281 71.5 68.054688 C 71.414062 67.882812 71.328125 67.707031 71.238281 67.535156 C 71.152344 66.320312 71.152344 65.109375 71.238281 63.894531 C 71.332031 63.824219 71.398438 63.738281 71.433594 63.636719 Z M 71.433594 63.636719 "/>
</g>
<mask id="mask68">
  <g filter="url(#alpha)">
<rect x="0" y="0" width="156" height="78" style="fill:rgb(0%,0%,0%);fill-opacity:0.898039;stroke:none;"/>
  </g>
</mask>
<clipPath id="clip69">
  <rect x="0" y="0" width="156" height="78"/>
</clipPath>
<g id="surface209" clip-path="url(#clip69)">
<path style=" stroke:none;fill-rule:evenodd;fill:rgb(29.411765%,30.196078%,30.588235%);fill-opacity:1;" d="M 77.804688 63.636719 C 78.328125 63.613281 78.847656 63.636719 79.363281 63.699219 C 80.25 63.839844 80.464844 64.273438 80.015625 65 C 79.546875 65.046875 79.09375 64.984375 78.648438 64.804688 C 78.394531 64.800781 78.199219 64.910156 78.066406 65.128906 C 78.691406 65.507812 79.339844 65.855469 80.015625 66.171875 C 80.738281 67.371094 80.433594 68.195312 79.105469 68.640625 C 78.121094 68.839844 77.234375 68.644531 76.441406 68.054688 C 76.292969 67.660156 76.398438 67.378906 76.765625 67.210938 C 77.285156 67.273438 77.804688 67.382812 78.324219 67.535156 C 78.609375 67.558594 78.824219 67.453125 78.976562 67.210938 C 78.445312 66.859375 77.882812 66.554688 77.285156 66.300781 C 76.621094 65.746094 76.472656 65.074219 76.828125 64.285156 C 77.113281 63.984375 77.4375 63.765625 77.804688 63.636719 Z M 77.804688 63.636719 "/>
</g>
<mask id="mask69">
  <g filter="url(#alpha)">
<rect x="0" y="0" width="156" height="78" style="fill:rgb(0%,0%,0%);fill-opacity:0.890196;stroke:none;"/>
  </g>
</mask>
<clipPath id="clip70">
  <rect x="0" y="0" width="156" height="78"/>
</clipPath>
<g id="surface212" clip-path="url(#clip70)">
<path style=" stroke:none;fill-rule:evenodd;fill:rgb(29.411765%,30.196078%,30.588235%);fill-opacity:1;" d="M 81.445312 63.636719 C 81.859375 63.566406 82.183594 63.695312 82.421875 64.023438 C 82.527344 65.53125 82.503906 67.023438 82.355469 68.511719 C 81.929688 68.613281 81.519531 68.589844 81.121094 68.445312 C 81.035156 66.972656 81.035156 65.5 81.121094 64.023438 C 81.253906 63.910156 81.363281 63.78125 81.445312 63.636719 Z M 81.445312 63.636719 "/>
</g>
<mask id="mask70">
  <g filter="url(#alpha)">
<rect x="0" y="0" width="156" height="78" style="fill:rgb(0%,0%,0%);fill-opacity:0.905882;stroke:none;"/>
  </g>
</mask>
<clipPath id="clip71">
  <rect x="0" y="0" width="156" height="78"/>
</clipPath>
<g id="surface215" clip-path="url(#clip71)">
<path style=" stroke:none;fill-rule:evenodd;fill:rgb(29.411765%,30.196078%,30.588235%);fill-opacity:1;" d="M 83.914062 63.636719 C 84.339844 63.570312 84.683594 63.703125 84.953125 64.023438 C 85.875 63.480469 86.765625 63.523438 87.621094 64.15625 C 87.785156 64.441406 87.914062 64.746094 88.011719 65.066406 C 88.097656 66.191406 88.097656 67.316406 88.011719 68.445312 C 87.570312 68.570312 87.113281 68.613281 86.644531 68.574219 C 86.667969 67.578125 86.644531 66.582031 86.578125 65.585938 C 86.125 64.785156 85.605469 64.742188 85.019531 65.453125 C 84.953125 66.492188 84.933594 67.535156 84.953125 68.574219 C 84.476562 68.574219 84 68.574219 83.523438 68.574219 C 83.503906 67.058594 83.523438 65.542969 83.589844 64.023438 C 83.679688 63.871094 83.789062 63.738281 83.914062 63.636719 Z M 83.914062 63.636719 "/>
</g>
<mask id="mask71">
  <g filter="url(#alpha)">
<rect x="0" y="0" width="156" height="78" style="fill:rgb(0%,0%,0%);fill-opacity:0.905882;stroke:none;"/>
  </g>
</mask>
<clipPath id="clip72">
  <rect x="0" y="0" width="156" height="78"/>
</clipPath>
<g id="surface218" clip-path="url(#clip72)">
<path style=" stroke:none;fill-rule:evenodd;fill:rgb(29.411765%,30.196078%,30.588235%);fill-opacity:1;" d="M 90.675781 63.636719 C 92.785156 63.472656 93.804688 64.425781 93.730469 66.496094 C 93.664062 66.558594 93.601562 66.625 93.535156 66.691406 C 92.453125 66.734375 91.367188 66.777344 90.285156 66.820312 C 90.464844 67.042969 90.679688 67.214844 90.933594 67.339844 C 91.730469 67.398438 92.511719 67.355469 93.273438 67.210938 C 93.6875 67.789062 93.558594 68.222656 92.886719 68.511719 C 91.734375 68.859375 90.652344 68.730469 89.636719 68.121094 C 88.898438 67.332031 88.660156 66.402344 88.921875 65.324219 C 89.238281 64.464844 89.824219 63.902344 90.675781 63.636719 Z M 90.933594 64.933594 C 91.558594 64.835938 92.039062 65.054688 92.363281 65.585938 C 91.671875 65.757812 90.976562 65.757812 90.285156 65.585938 C 90.464844 65.320312 90.679688 65.101562 90.933594 64.933594 Z M 90.933594 64.933594 "/>
</g>
<mask id="mask72">
  <g filter="url(#alpha)">
<rect x="0" y="0" width="156" height="78" style="fill:rgb(0%,0%,0%);fill-opacity:0.898039;stroke:none;"/>
  </g>
</mask>
<clipPath id="clip73">
  <rect x="0" y="0" width="156" height="78"/>
</clipPath>
<g id="surface221" clip-path="url(#clip73)">
<path style=" stroke:none;fill-rule:evenodd;fill:rgb(29.411765%,30.196078%,30.588235%);fill-opacity:1;" d="M 95.484375 63.636719 C 96.007812 63.613281 96.527344 63.636719 97.046875 63.699219 C 97.929688 63.839844 98.144531 64.273438 97.695312 65 C 97.230469 65.046875 96.773438 64.984375 96.328125 64.804688 C 96.074219 64.800781 95.878906 64.910156 95.746094 65.128906 C 96.371094 65.507812 97.019531 65.855469 97.695312 66.171875 C 98.417969 67.371094 98.113281 68.195312 96.785156 68.640625 C 95.800781 68.839844 94.914062 68.644531 94.121094 68.054688 C 93.972656 67.660156 94.082031 67.378906 94.445312 67.210938 C 94.964844 67.273438 95.484375 67.382812 96.003906 67.535156 C 96.289062 67.558594 96.507812 67.453125 96.65625 67.210938 C 96.125 66.859375 95.5625 66.554688 94.964844 66.300781 C 94.300781 65.746094 94.152344 65.074219 94.511719 64.285156 C 94.792969 63.984375 95.117188 63.765625 95.484375 63.636719 Z M 95.484375 63.636719 "/>
</g>
<mask id="mask73">
  <g filter="url(#alpha)">
<rect x="0" y="0" width="156" height="78" style="fill:rgb(0%,0%,0%);fill-opacity:0.898039;stroke:none;"/>
  </g>
</mask>
<clipPath id="clip74">
  <rect x="0" y="0" width="156" height="78"/>
</clipPath>
<g id="surface224" clip-path="url(#clip74)">
<path style=" stroke:none;fill-rule:evenodd;fill:rgb(29.411765%,30.196078%,30.588235%);fill-opacity:1;" d="M 99.773438 63.636719 C 100.296875 63.613281 100.816406 63.636719 101.335938 63.699219 C 102.21875 63.839844 102.4375 64.273438 101.984375 65 C 101.519531 65.046875 101.0625 64.984375 100.621094 64.804688 C 100.363281 64.800781 100.167969 64.910156 100.035156 65.128906 C 100.660156 65.507812 101.308594 65.855469 101.984375 66.171875 C 102.707031 67.371094 102.402344 68.195312 101.074219 68.640625 C 100.09375 68.839844 99.203125 68.644531 98.410156 68.054688 C 98.261719 67.660156 98.371094 67.378906 98.734375 67.210938 C 99.253906 67.273438 99.773438 67.382812 100.296875 67.535156 C 100.578125 67.558594 100.796875 67.453125 100.945312 67.210938 C 100.414062 66.859375 99.851562 66.554688 99.253906 66.300781 C 98.59375 65.746094 98.441406 65.074219 98.800781 64.285156 C 99.082031 63.984375 99.40625 63.765625 99.773438 63.636719 Z M 99.773438 63.636719 "/>
</g>
</defs>
<g id="surface1">
<use xlink:href="#surface5" mask="url(#mask0)"/>
<use xlink:href="#surface8" mask="url(#mask1)"/>
<path style=" stroke:none;fill-rule:evenodd;fill:rgb(92.156863%,12.156863%,14.901961%);fill-opacity:1;" d="M 64.546875 9.296875 C 75.25 9.296875 85.953125 9.296875 96.65625 9.296875 C 96.65625 12.414062 96.65625 15.535156 96.65625 18.65625 C 89.417969 18.65625 82.183594 18.65625 74.945312 18.65625 C 74.945312 21.730469 74.945312 24.808594 74.945312 27.886719 C 80.882812 27.886719 86.816406 27.886719 92.753906 27.886719 C 92.753906 31.003906 92.753906 34.125 92.753906 37.246094 C 86.816406 37.246094 80.882812 37.246094 74.945312 37.246094 C 74.945312 40.410156 74.945312 43.570312 74.945312 46.734375 C 82.183594 46.734375 89.417969 46.734375 96.65625 46.734375 C 96.65625 49.855469 96.65625 52.976562 96.65625 56.09375 C 85.953125 56.09375 75.25 56.09375 64.546875 56.09375 C 64.546875 40.496094 64.546875 24.894531 64.546875 9.296875 Z M 64.546875 9.296875 "/>
<use xlink:href="#surface11" mask="url(#mask2)"/>
<use xlink:href="#surface14" mask="url(#mask3)"/>
<use xlink:href="#surface17" mask="url(#mask4)"/>
<use xlink:href="#surface20" mask="url(#mask5)"/>
<use xlink:href="#surface23" mask="url(#mask6)"/>
<use xlink:href="#surface26" mask="url(#mask7)"/>
<use xlink:href="#surface29" mask="url(#mask8)"/>
<use xlink:href="#surface32" mask="url(#mask9)"/>
<use xlink:href="#surface35" mask="url(#mask10)"/>
<use xlink:href="#surface38" mask="url(#mask11)"/>
<use xlink:href="#surface41" mask="url(#mask12)"/>
<use xlink:href="#surface44" mask="url(#mask13)"/>
<use xlink:href="#surface47" mask="url(#mask14)"/>
<use xlink:href="#surface50" mask="url(#mask15)"/>
<use xlink:href="#surface53" mask="url(#mask16)"/>
<use xlink:href="#surface56" mask="url(#mask17)"/>
<use xlink:href="#surface59" mask="url(#mask18)"/>
<use xlink:href="#surface62" mask="url(#mask19)"/>
<use xlink:href="#surface65" mask="url(#mask20)"/>
<use xlink:href="#surface68" mask="url(#mask21)"/>
<use xlink:href="#surface71" mask="url(#mask22)"/>
<use xlink:href="#surface74" mask="url(#mask23)"/>
<use xlink:href="#surface77" mask="url(#mask24)"/>
<use xlink:href="#surface80" mask="url(#mask25)"/>
<use xlink:href="#surface83" mask="url(#mask26)"/>
<use xlink:href="#surface86" mask="url(#mask27)"/>
<use xlink:href="#surface89" mask="url(#mask28)"/>
<use xlink:href="#surface92" mask="url(#mask29)"/>
<use xlink:href="#surface95" mask="url(#mask30)"/>
<use xlink:href="#surface98" mask="url(#mask31)"/>
<use xlink:href="#surface101" mask="url(#mask32)"/>
<use xlink:href="#surface104" mask="url(#mask33)"/>
<use xlink:href="#surface107" mask="url(#mask34)"/>
<use xlink:href="#surface110" mask="url(#mask35)"/>
<use xlink:href="#surface113" mask="url(#mask36)"/>
<use xlink:href="#surface116" mask="url(#mask37)"/>
<use xlink:href="#surface119" mask="url(#mask38)"/>
<use xlink:href="#surface122" mask="url(#mask39)"/>
<use xlink:href="#surface125" mask="url(#mask40)"/>
<use xlink:href="#surface128" mask="url(#mask41)"/>
<use xlink:href="#surface131" mask="url(#mask42)"/>
<use xlink:href="#surface134" mask="url(#mask43)"/>
<use xlink:href="#surface137" mask="url(#mask44)"/>
<use xlink:href="#surface140" mask="url(#mask45)"/>
<use xlink:href="#surface143" mask="url(#mask46)"/>
<use xlink:href="#surface146" mask="url(#mask47)"/>
<use xlink:href="#surface149" mask="url(#mask48)"/>
<use xlink:href="#surface152" mask="url(#mask49)"/>
<use xlink:href="#surface155" mask="url(#mask50)"/>
<use xlink:href="#surface158" mask="url(#mask51)"/>
<use xlink:href="#surface161" mask="url(#mask52)"/>
<use xlink:href="#surface164" mask="url(#mask53)"/>
<use xlink:href="#surface167" mask="url(#mask54)"/>
<use xlink:href="#surface170" mask="url(#mask55)"/>
<use xlink:href="#surface173" mask="url(#mask56)"/>
<use xlink:href="#surface176" mask="url(#mask57)"/>
<use xlink:href="#surface179" mask="url(#mask58)"/>
<use xlink:href="#surface182" mask="url(#mask59)"/>
<use xlink:href="#surface185" mask="url(#mask60)"/>
<use xlink:href="#surface188" mask="url(#mask61)"/>
<use xlink:href="#surface191" mask="url(#mask62)"/>
<use xlink:href="#surface194" mask="url(#mask63)"/>
<use xlink:href="#surface197" mask="url(#mask64)"/>
<use xlink:href="#surface200" mask="url(#mask65)"/>
<use xlink:href="#surface203" mask="url(#mask66)"/>
<use xlink:href="#surface206" mask="url(#mask67)"/>
<use xlink:href="#surface209" mask="url(#mask68)"/>
<use xlink:href="#surface212" mask="url(#mask69)"/>
<use xlink:href="#surface215" mask="url(#mask70)"/>
<use xlink:href="#surface218" mask="url(#mask71)"/>
<use xlink:href="#surface221" mask="url(#mask72)"/>
<use xlink:href="#surface224" mask="url(#mask73)"/>
</g>
</svg>
