<?xml version="1.0" encoding="UTF-8"?>
<!DOCTYPE svg PUBLIC "-//W3C//DTD SVG 1.1//EN" "http://www.w3.org/Graphics/SVG/1.1/DTD/svg11.dtd">
<svg xmlns="http://www.w3.org/2000/svg" version="1.1" width="1106px" height="386px" style="shape-rendering:geometricPrecision; text-rendering:geometricPrecision; image-rendering:optimizeQuality; fill-rule:evenodd; clip-rule:evenodd" xmlns:xlink="http://www.w3.org/1999/xlink">
<g><path style="opacity:0.975" fill="#feca06" d="M 1037.5,-0.5 C 1043.5,-0.5 1049.5,-0.5 1055.5,-0.5C 1080.98,5.24205 1097.65,20.5754 1105.5,45.5C 1105.5,54.8333 1105.5,64.1667 1105.5,73.5C 1102.9,83.2913 1098.24,91.958 1091.5,99.5C 1089.52,66.7109 1074.52,41.8776 1046.5,25C 1034.07,18.8134 1021.07,14.98 1007.5,13.5C 1016.24,6.13018 1026.24,1.46351 1037.5,-0.5 Z"/></g>
<g><path style="opacity:0.984" fill="#ec1b24" d="M 1006.5,13.5 C 982.53,39.6732 980.197,67.6732 999.5,97.5C 969.928,78.2259 942.261,80.5592 916.5,104.5C 916.442,65.7725 933.776,37.9392 968.5,21C 980.691,16.1286 993.357,13.6286 1006.5,13.5 Z"/></g>
<g><path style="opacity:1" fill="#ec018b" d="M 1006.5,13.5 C 1006.83,13.5 1007.17,13.5 1007.5,13.5C 1021.07,14.98 1034.07,18.8134 1046.5,25C 1074.52,41.8776 1089.52,66.7109 1091.5,99.5C 1065.01,123.692 1037.01,125.692 1007.5,105.5C 1004.5,103.167 1001.83,100.5 999.5,97.5C 980.197,67.6732 982.53,39.6732 1006.5,13.5 Z"/></g>
<g><path style="opacity:1" fill="#c5168c" d="M 999.5,97.5 C 1001.83,100.5 1004.5,103.167 1007.5,105.5C 1025.33,129.506 1026.16,154.172 1010,179.5C 1006.9,182.75 1004.07,186.083 1001.5,189.5C 1001.17,189.5 1000.83,189.5 1000.5,189.5C 956.949,185.117 929.449,161.784 918,119.5C 917.252,114.519 916.752,109.519 916.5,104.5C 942.261,80.5592 969.928,78.2259 999.5,97.5 Z"/></g>
<g><path style="opacity:0.982" fill="#ec1b24" d="M 1091.5,99.5 C 1090.75,141.208 1071.08,169.708 1032.5,185C 1022.41,188.133 1012.07,189.633 1001.5,189.5C 1004.07,186.083 1006.9,182.75 1010,179.5C 1026.16,154.172 1025.33,129.506 1007.5,105.5C 1037.01,125.692 1065.01,123.692 1091.5,99.5 Z"/></g>
<g><path style="opacity:0.971" fill="#33bbac" d="M 916.5,104.5 C 916.752,109.519 917.252,114.519 918,119.5C 929.449,161.784 956.949,185.117 1000.5,189.5C 987.728,200.812 972.728,205.645 955.5,204C 927.99,199.825 910.49,184.325 903,157.5C 898.921,137.481 903.421,119.815 916.5,104.5 Z"/></g>
<g><path style="opacity:0.958" fill="#4c4d4e" d="M -0.5,148.5 C -0.5,143.833 -0.5,139.167 -0.5,134.5C 8.92802,118.021 21.428,115.354 37,126.5C 45.8546,140.209 43.6879,151.709 30.5,161C 16.3587,165.904 6.02539,161.737 -0.5,148.5 Z"/></g>
<g><path style="opacity:0.977" fill="#4c4d4e" d="M 318.5,131.5 C 331.167,131.5 343.833,131.5 356.5,131.5C 356.5,190.833 356.5,250.167 356.5,309.5C 344.833,309.5 333.167,309.5 321.5,309.5C 321.666,304.821 321.499,300.155 321,295.5C 306.773,311.103 289.273,316.603 268.5,312C 240.228,305.728 221.394,288.894 212,261.5C 204.178,217.965 221.012,188.798 262.5,174C 282.641,168.164 301.141,171.331 318,183.5C 318.5,166.17 318.667,148.837 318.5,131.5 Z M 282.5,205.5 C 305.017,207.684 317.684,220.017 320.5,242.5C 316.997,268.17 302.33,280.003 276.5,278C 253.859,270.561 244.693,255.061 249,231.5C 255.093,216.235 266.26,207.568 282.5,205.5 Z"/></g>
<g><path style="opacity:0.97" fill="#4c4d4e" d="M 815.5,131.5 C 828.167,131.5 840.833,131.5 853.5,131.5C 853.5,145.167 853.5,158.833 853.5,172.5C 865.833,172.5 878.167,172.5 890.5,172.5C 890.5,183.5 890.5,194.5 890.5,205.5C 878.167,205.5 865.833,205.5 853.5,205.5C 853.333,219.837 853.5,234.171 854,248.5C 858.85,267.526 871.017,277.526 890.5,278.5C 890.5,290.167 890.5,301.833 890.5,313.5C 857.786,314.895 834.619,300.895 821,271.5C 818.391,265.066 816.725,258.399 816,251.5C 815.5,211.501 815.333,171.501 815.5,131.5 Z"/></g>
<g><path style="opacity:0.974" fill="#4c4d4e" d="M 115.5,171.5 C 143.802,168.909 166.302,178.909 183,201.5C 189.069,211.706 192.735,222.706 194,234.5C 194.5,259.498 194.667,284.498 194.5,309.5C 181.833,309.5 169.167,309.5 156.5,309.5C 156.945,283.129 156.445,256.796 155,230.5C 148.195,210.015 134.362,202.515 113.5,208C 103.681,212.487 97.5142,219.987 95,230.5C 93.5361,256.782 93.0361,283.115 93.5,309.5C 80.8333,309.5 68.1667,309.5 55.5,309.5C 55.3334,283.831 55.5,258.165 56,232.5C 61.57,198.098 81.4033,177.765 115.5,171.5 Z"/></g>
<g><path style="opacity:0.973" fill="#4c4d4e" d="M 437.5,171.5 C 473.914,169.111 500.08,184.111 516,216.5C 527.238,252.119 517.738,280.619 487.5,302C 455.61,319.195 425.277,316.862 396.5,295C 371.233,269.29 366.4,240.123 382,207.5C 395.217,187.311 413.717,175.311 437.5,171.5 Z M 445.5,205.5 C 471.572,208.65 483.739,223.316 482,249.5C 475.919,270.896 461.753,280.396 439.5,278C 421.675,272.857 412.008,261.024 410.5,242.5C 413.02,221.317 424.687,208.984 445.5,205.5 Z"/></g>
<g><path style="opacity:0.973" fill="#4c4d4e" d="M 577.5,171.5 C 592.378,170.145 606.378,172.979 619.5,180C 632.6,189.032 639.267,201.532 639.5,217.5C 626.833,217.5 614.167,217.5 601.5,217.5C 601.029,208.03 596.029,203.363 586.5,203.5C 574.216,203.248 569.882,208.748 573.5,220C 576.167,221.667 578.833,223.333 581.5,225C 594.188,228.334 606.854,231.667 619.5,235C 641.062,247.694 646.562,265.527 636,288.5C 625.903,303.473 611.737,311.639 593.5,313C 571.736,315.416 553.57,308.583 539,292.5C 533.982,284.944 531.482,276.61 531.5,267.5C 544.167,267.5 556.833,267.5 569.5,267.5C 570.781,276.918 576.281,281.585 586,281.5C 592.584,281.208 597.917,278.541 602,273.5C 603.051,265.508 599.551,260.342 591.5,258C 575.99,256.164 561.657,251.164 548.5,243C 532.064,229.24 528.897,212.74 539,193.5C 548.833,180.816 561.667,173.483 577.5,171.5 Z"/></g>
<g><path style="opacity:0.971" fill="#4c4d4e" d="M 715.5,171.5 C 747.433,169.219 772.267,181.219 790,207.5C 795.33,217.152 798.33,227.486 799,238.5C 799.5,262.164 799.667,285.831 799.5,309.5C 787.5,309.5 775.5,309.5 763.5,309.5C 763.666,304.821 763.499,300.155 763,295.5C 750.978,309.398 735.811,315.231 717.5,313C 677.395,306.397 655.395,282.897 651.5,242.5C 655.37,202.969 676.703,179.302 715.5,171.5 Z M 724.5,205.5 C 744.471,206.984 756.971,217.317 762,236.5C 763.772,258.134 754.272,271.967 733.5,278C 707.67,280.003 693.003,268.17 689.5,242.5C 692.021,221.317 703.688,208.983 724.5,205.5 Z"/></g>
<g><path style="opacity:0.975" fill="#4c4d4e" d="M 1.5,175.5 C 14.1667,175.5 26.8333,175.5 39.5,175.5C 39.5,220.167 39.5,264.833 39.5,309.5C 26.8333,309.5 14.1667,309.5 1.5,309.5C 1.5,264.833 1.5,220.167 1.5,175.5 Z"/></g>
<g><path style="opacity:0.88" fill="#4c4d4e" d="M 665.5,385.5 C 658.167,385.5 650.833,385.5 643.5,385.5C 642.469,384.751 641.302,384.085 640,383.5C 639.503,381.19 639.337,378.857 639.5,376.5C 645.68,378.57 652.013,379.403 658.5,379C 664.817,377.369 666.484,373.703 663.5,368C 658.651,365.41 653.651,363.076 648.5,361C 640.068,355.642 638.235,348.476 643,339.5C 645.469,337.348 648.302,335.848 651.5,335C 658.277,334.201 664.943,334.701 671.5,336.5C 671.813,339.247 671.48,341.914 670.5,344.5C 664.368,341.318 658.035,340.818 651.5,343C 647.5,346.333 647.5,349.667 651.5,353C 657.5,356 663.5,359 669.5,362C 674.196,368.131 674.696,374.631 671,381.5C 668.985,382.697 667.151,384.03 665.5,385.5 Z"/></g>
<g><path style="opacity:0.889" fill="#4c4d4e" d="M 837.5,385.5 C 830.5,385.5 823.5,385.5 816.5,385.5C 815.469,384.751 814.302,384.085 813,383.5C 812.503,381.19 812.337,378.857 812.5,376.5C 815.843,377.224 819.176,378.057 822.5,379C 827.072,379.887 831.405,379.22 835.5,377C 838.269,373.393 837.936,370.06 834.5,367C 827.474,364.405 820.974,360.905 815,356.5C 809.993,346.183 812.826,339.016 823.5,335C 830.277,334.201 836.943,334.701 843.5,336.5C 843.664,339.187 843.497,341.854 843,344.5C 835.927,340.707 828.927,340.707 822,344.5C 821.022,347.669 821.522,350.503 823.5,353C 829.081,355.86 834.748,358.526 840.5,361C 842.378,362.543 843.878,364.376 845,366.5C 847.641,375.132 845.141,381.465 837.5,385.5 Z"/></g>
<g><path style="opacity:0.887" fill="#4c4d4e" d="M 881.5,385.5 C 874.5,385.5 867.5,385.5 860.5,385.5C 859.469,384.751 858.302,384.085 857,383.5C 856.503,381.19 856.337,378.857 856.5,376.5C 859.843,377.224 863.176,378.057 866.5,379C 871.072,379.887 875.405,379.22 879.5,377C 882.269,373.393 881.936,370.06 878.5,367C 871.474,364.405 864.974,360.905 859,356.5C 854.001,346.157 856.834,338.99 867.5,335C 874.277,334.201 880.943,334.701 887.5,336.5C 887.664,339.187 887.497,341.854 887,344.5C 880.061,340.737 873.228,340.737 866.5,344.5C 864.938,347.614 865.271,350.447 867.5,353C 873.081,355.86 878.748,358.526 884.5,361C 889.837,365.85 891.337,371.683 889,378.5C 887.258,381.746 884.758,384.079 881.5,385.5 Z"/></g>
<g><path style="opacity:0.885" fill="#4c4d4e" d="M 560.5,385.5 C 551.167,385.5 541.833,385.5 532.5,385.5C 532.5,368.833 532.5,352.167 532.5,335.5C 541.839,335.334 551.173,335.5 560.5,336C 568.479,339.128 571.313,344.961 569,353.5C 568.086,355.664 566.919,357.664 565.5,359.5C 571.906,365.161 573.073,371.828 569,379.5C 566.678,382.395 563.845,384.395 560.5,385.5 Z M 540.5,342.5 C 546.176,342.334 551.843,342.501 557.5,343C 562.757,347.156 562.757,351.489 557.5,356C 551.843,356.499 546.176,356.666 540.5,356.5C 540.5,351.833 540.5,347.167 540.5,342.5 Z M 540.5,363.5 C 546.509,363.334 552.509,363.501 558.5,364C 561.859,365.135 563.192,367.468 562.5,371C 563.192,374.532 561.859,376.865 558.5,378C 552.509,378.499 546.509,378.666 540.5,378.5C 540.5,373.5 540.5,368.5 540.5,363.5 Z"/></g>
<g><path style="opacity:0.868" fill="#4c4d4e" d="M 614.5,385.5 C 608.5,385.5 602.5,385.5 596.5,385.5C 591.184,383.682 587.684,380.016 586,374.5C 584.599,361.552 584.099,348.552 584.5,335.5C 587.5,335.5 590.5,335.5 593.5,335.5C 593.333,347.838 593.5,360.171 594,372.5C 596.609,376.722 600.442,378.722 605.5,378.5C 610.558,378.722 614.391,376.722 617,372.5C 618.394,360.22 618.894,347.886 618.5,335.5C 621.167,335.5 623.833,335.5 626.5,335.5C 626.901,348.552 626.401,361.552 625,374.5C 623.316,380.016 619.816,383.682 614.5,385.5 Z"/></g>
<g><path style="opacity:0.888" fill="#4c4d4e" d="M 695.5,385.5 C 692.833,385.5 690.167,385.5 687.5,385.5C 687.5,368.833 687.5,352.167 687.5,335.5C 690.167,335.5 692.833,335.5 695.5,335.5C 695.5,352.167 695.5,368.833 695.5,385.5 Z"/></g>
<g><path style="opacity:0.895" fill="#4c4d4e" d="M 751.5,385.5 C 748.833,385.5 746.167,385.5 743.5,385.5C 735.677,373.862 727.843,362.195 720,350.5C 719.5,362.162 719.333,373.829 719.5,385.5C 716.833,385.5 714.167,385.5 711.5,385.5C 711.5,368.833 711.5,352.167 711.5,335.5C 714.448,335.223 717.281,335.556 720,336.5C 727.275,348.107 734.942,359.44 743,370.5C 743.5,358.838 743.667,347.171 743.5,335.5C 746.167,335.5 748.833,335.5 751.5,335.5C 751.5,352.167 751.5,368.833 751.5,385.5 Z"/></g>
<g><path style="opacity:0.901" fill="#4c4d4e" d="M 799.5,385.5 C 788.5,385.5 777.5,385.5 766.5,385.5C 766.5,368.833 766.5,352.167 766.5,335.5C 777.5,335.5 788.5,335.5 799.5,335.5C 799.5,337.833 799.5,340.167 799.5,342.5C 791.167,342.5 782.833,342.5 774.5,342.5C 774.5,347.167 774.5,351.833 774.5,356.5C 780.833,356.5 787.167,356.5 793.5,356.5C 793.5,358.833 793.5,361.167 793.5,363.5C 787.167,363.5 780.833,363.5 774.5,363.5C 774.5,368.5 774.5,373.5 774.5,378.5C 782.833,378.5 791.167,378.5 799.5,378.5C 799.5,380.833 799.5,383.167 799.5,385.5 Z"/></g>
</svg>
