<?xml version="1.0" encoding="UTF-8"?>
<svg xmlns="http://www.w3.org/2000/svg" xmlns:xlink="http://www.w3.org/1999/xlink" width="155px" height="54px" viewBox="0 0 154 54" version="1.1">
<defs>
<filter id="alpha" filterUnits="objectBoundingBox" x="0%" y="0%" width="100%" height="100%">
  <feColorMatrix type="matrix" in="SourceGraphic" values="0 0 0 0 1 0 0 0 0 1 0 0 0 0 1 0 0 0 1 0"/>
</filter>
<mask id="mask0">
  <g filter="url(#alpha)">
<rect x="0" y="0" width="154" height="54" style="fill:rgb(0%,0%,0%);fill-opacity:0.976471;stroke:none;"/>
  </g>
</mask>
<clipPath id="clip1">
  <rect x="0" y="0" width="154" height="54"/>
</clipPath>
<g id="surface5" clip-path="url(#clip1)">
<path style=" stroke:none;fill-rule:evenodd;fill:rgb(99.607843%,79.215686%,2.352941%);fill-opacity:1;" d="M 144.460938 -0.0703125 C 145.296875 -0.0703125 146.132812 -0.0703125 146.96875 -0.0703125 C 150.515625 0.734375 152.835938 2.878906 153.929688 6.367188 C 153.929688 7.671875 153.929688 8.976562 153.929688 10.28125 C 153.566406 11.652344 152.917969 12.863281 151.980469 13.917969 C 151.707031 9.332031 149.617188 5.859375 145.714844 3.496094 C 143.984375 2.632812 142.175781 2.09375 140.285156 1.886719 C 141.5 0.859375 142.894531 0.203125 144.460938 -0.0703125 Z M 144.460938 -0.0703125 "/>
</g>
<mask id="mask1">
  <g filter="url(#alpha)">
<rect x="0" y="0" width="154" height="54" style="fill:rgb(0%,0%,0%);fill-opacity:0.984314;stroke:none;"/>
  </g>
</mask>
<clipPath id="clip2">
  <rect x="0" y="0" width="154" height="54"/>
</clipPath>
<g id="surface8" clip-path="url(#clip2)">
<path style=" stroke:none;fill-rule:evenodd;fill:rgb(92.54902%,10.588235%,14.117647%);fill-opacity:1;" d="M 140.144531 1.886719 C 136.808594 5.550781 136.484375 9.46875 139.171875 13.640625 C 135.054688 10.945312 131.199219 11.269531 127.613281 14.621094 C 127.605469 9.203125 130.019531 5.308594 134.855469 2.9375 C 136.550781 2.257812 138.316406 1.90625 140.144531 1.886719 Z M 140.144531 1.886719 "/>
</g>
<mask id="mask2">
  <g filter="url(#alpha)">
<rect x="0" y="0" width="154" height="54" style="fill:rgb(0%,0%,0%);fill-opacity:0.980392;stroke:none;"/>
  </g>
</mask>
<clipPath id="clip3">
  <rect x="0" y="0" width="154" height="54"/>
</clipPath>
<g id="surface11" clip-path="url(#clip3)">
<path style=" stroke:none;fill-rule:evenodd;fill:rgb(92.54902%,10.588235%,14.117647%);fill-opacity:1;" d="M 151.980469 13.917969 C 151.875 19.753906 149.136719 23.742188 143.765625 25.878906 C 142.359375 26.320312 140.921875 26.527344 139.449219 26.511719 C 139.808594 26.03125 140.203125 25.566406 140.632812 25.113281 C 142.882812 21.566406 142.765625 18.117188 140.285156 14.757812 C 144.394531 17.582031 148.292969 17.304688 151.980469 13.917969 Z M 151.980469 13.917969 "/>
</g>
<mask id="mask3">
  <g filter="url(#alpha)">
<rect x="0" y="0" width="154" height="54" style="fill:rgb(0%,0%,0%);fill-opacity:0.972549;stroke:none;"/>
  </g>
</mask>
<clipPath id="clip4">
  <rect x="0" y="0" width="154" height="54"/>
</clipPath>
<g id="surface14" clip-path="url(#clip4)">
<path style=" stroke:none;fill-rule:evenodd;fill:rgb(20%,73.333333%,67.45098%);fill-opacity:1;" d="M 127.613281 14.621094 C 127.648438 15.320312 127.71875 16.019531 127.824219 16.71875 C 129.417969 22.632812 133.246094 25.898438 139.308594 26.511719 C 137.53125 28.09375 135.441406 28.769531 133.042969 28.539062 C 129.214844 27.953125 126.777344 25.785156 125.734375 22.035156 C 125.167969 19.234375 125.792969 16.761719 127.613281 14.621094 Z M 127.613281 14.621094 "/>
</g>
<mask id="mask4">
  <g filter="url(#alpha)">
<rect x="0" y="0" width="154" height="54" style="fill:rgb(0%,0%,0%);fill-opacity:0.956863;stroke:none;"/>
  </g>
</mask>
<clipPath id="clip5">
  <rect x="0" y="0" width="154" height="54"/>
</clipPath>
<g id="surface17" clip-path="url(#clip5)">
<path style=" stroke:none;fill-rule:evenodd;fill:rgb(29.803922%,30.196078%,30.588235%);fill-opacity:1;" d="M -0.0703125 20.773438 C -0.0703125 20.121094 -0.0703125 19.46875 -0.0703125 18.816406 C 1.242188 16.511719 2.984375 16.136719 5.152344 17.695312 C 6.386719 19.613281 6.082031 21.222656 4.246094 22.523438 C 2.277344 23.210938 0.839844 22.625 -0.0703125 20.773438 Z M -0.0703125 20.773438 "/>
</g>
<mask id="mask5">
  <g filter="url(#alpha)">
<rect x="0" y="0" width="154" height="54" style="fill:rgb(0%,0%,0%);fill-opacity:0.976471;stroke:none;"/>
  </g>
</mask>
<clipPath id="clip6">
  <rect x="0" y="0" width="154" height="54"/>
</clipPath>
<g id="surface20" clip-path="url(#clip6)">
<path style=" stroke:none;fill-rule:evenodd;fill:rgb(29.803922%,30.196078%,30.588235%);fill-opacity:1;" d="M 44.347656 18.394531 C 46.113281 18.394531 47.875 18.394531 49.640625 18.394531 C 49.640625 26.695312 49.640625 34.996094 49.640625 43.296875 C 48.015625 43.296875 46.390625 43.296875 44.765625 43.296875 C 44.789062 42.644531 44.765625 41.992188 44.695312 41.339844 C 42.714844 43.523438 40.277344 44.292969 37.386719 43.648438 C 33.449219 42.769531 30.828125 40.414062 29.519531 36.582031 C 28.429688 30.492188 30.773438 26.414062 36.550781 24.34375 C 39.355469 23.527344 41.929688 23.96875 44.277344 25.671875 C 44.347656 23.246094 44.371094 20.820312 44.347656 18.394531 Z M 39.335938 28.75 C 42.472656 29.054688 44.234375 30.78125 44.625 33.925781 C 44.140625 37.515625 42.097656 39.171875 38.5 38.890625 C 35.347656 37.851562 34.070312 35.683594 34.671875 32.386719 C 35.519531 30.25 37.074219 29.039062 39.335938 28.75 Z M 39.335938 28.75 "/>
</g>
<mask id="mask6">
  <g filter="url(#alpha)">
<rect x="0" y="0" width="154" height="54" style="fill:rgb(0%,0%,0%);fill-opacity:0.968627;stroke:none;"/>
  </g>
</mask>
<clipPath id="clip7">
  <rect x="0" y="0" width="154" height="54"/>
</clipPath>
<g id="surface23" clip-path="url(#clip7)">
<path style=" stroke:none;fill-rule:evenodd;fill:rgb(29.803922%,30.196078%,30.588235%);fill-opacity:1;" d="M 113.550781 18.394531 C 115.3125 18.394531 117.078125 18.394531 118.839844 18.394531 C 118.839844 20.308594 118.839844 22.21875 118.839844 24.132812 C 120.558594 24.132812 122.277344 24.132812 123.992188 24.132812 C 123.992188 25.671875 123.992188 27.210938 123.992188 28.75 C 122.277344 28.75 120.558594 28.75 118.839844 28.75 C 118.820312 30.753906 118.839844 32.757812 118.910156 34.765625 C 119.585938 37.425781 121.28125 38.824219 123.992188 38.960938 C 123.992188 40.59375 123.992188 42.226562 123.992188 43.859375 C 119.4375 44.050781 116.210938 42.09375 114.316406 37.980469 C 113.953125 37.082031 113.722656 36.148438 113.621094 35.183594 C 113.550781 29.589844 113.527344 23.992188 113.550781 18.394531 Z M 113.550781 18.394531 "/>
</g>
<mask id="mask7">
  <g filter="url(#alpha)">
<rect x="0" y="0" width="154" height="54" style="fill:rgb(0%,0%,0%);fill-opacity:0.972549;stroke:none;"/>
  </g>
</mask>
<clipPath id="clip8">
  <rect x="0" y="0" width="154" height="54"/>
</clipPath>
<g id="surface26" clip-path="url(#clip8)">
<path style=" stroke:none;fill-rule:evenodd;fill:rgb(29.803922%,30.196078%,30.588235%);fill-opacity:1;" d="M 16.082031 23.992188 C 20.023438 23.628906 23.15625 25.027344 25.480469 28.1875 C 26.324219 29.617188 26.835938 31.15625 27.011719 32.804688 C 27.082031 36.304688 27.105469 39.800781 27.082031 43.296875 C 25.320312 43.296875 23.554688 43.296875 21.792969 43.296875 C 21.851562 39.609375 21.785156 35.925781 21.582031 32.246094 C 20.632812 29.378906 18.707031 28.332031 15.804688 29.097656 C 14.4375 29.726562 13.578125 30.773438 13.226562 32.246094 C 13.023438 35.921875 12.953125 39.605469 13.019531 43.296875 C 11.253906 43.296875 9.492188 43.296875 7.726562 43.296875 C 7.703125 39.707031 7.726562 36.117188 7.796875 32.527344 C 8.574219 27.714844 11.335938 24.867188 16.082031 23.992188 Z M 16.082031 23.992188 "/>
</g>
<mask id="mask8">
  <g filter="url(#alpha)">
<rect x="0" y="0" width="154" height="54" style="fill:rgb(0%,0%,0%);fill-opacity:0.972549;stroke:none;"/>
  </g>
</mask>
<clipPath id="clip9">
  <rect x="0" y="0" width="154" height="54"/>
</clipPath>
<g id="surface29" clip-path="url(#clip9)">
<path style=" stroke:none;fill-rule:evenodd;fill:rgb(29.803922%,30.196078%,30.588235%);fill-opacity:1;" d="M 60.917969 23.992188 C 65.988281 23.65625 69.632812 25.757812 71.847656 30.289062 C 73.414062 35.269531 72.089844 39.257812 67.878906 42.25 C 63.4375 44.652344 59.214844 44.328125 55.207031 41.269531 C 51.691406 37.671875 51.019531 33.59375 53.191406 29.027344 C 55.03125 26.203125 57.605469 24.523438 60.917969 23.992188 Z M 62.03125 28.75 C 65.660156 29.1875 67.355469 31.242188 67.113281 34.902344 C 66.265625 37.898438 64.292969 39.226562 61.195312 38.890625 C 58.714844 38.171875 57.367188 36.515625 57.160156 33.925781 C 57.507812 30.960938 59.132812 29.234375 62.03125 28.75 Z M 62.03125 28.75 "/>
</g>
<mask id="mask9">
  <g filter="url(#alpha)">
<rect x="0" y="0" width="154" height="54" style="fill:rgb(0%,0%,0%);fill-opacity:0.972549;stroke:none;"/>
  </g>
</mask>
<clipPath id="clip10">
  <rect x="0" y="0" width="154" height="54"/>
</clipPath>
<g id="surface32" clip-path="url(#clip10)">
<path style=" stroke:none;fill-rule:evenodd;fill:rgb(29.803922%,30.196078%,30.588235%);fill-opacity:1;" d="M 80.410156 23.992188 C 82.484375 23.800781 84.433594 24.199219 86.257812 25.179688 C 88.082031 26.445312 89.011719 28.195312 89.042969 30.425781 C 87.28125 30.425781 85.515625 30.425781 83.753906 30.425781 C 83.6875 29.101562 82.992188 28.449219 81.664062 28.46875 C 79.953125 28.433594 79.351562 29.203125 79.855469 30.777344 C 80.226562 31.011719 80.597656 31.242188 80.96875 31.476562 C 82.734375 31.941406 84.5 32.410156 86.257812 32.875 C 89.261719 34.652344 90.027344 37.144531 88.558594 40.359375 C 87.152344 42.453125 85.179688 43.597656 82.640625 43.789062 C 79.609375 44.125 77.078125 43.167969 75.050781 40.917969 C 74.351562 39.863281 74.003906 38.695312 74.007812 37.421875 C 75.769531 37.421875 77.535156 37.421875 79.296875 37.421875 C 79.476562 38.738281 80.242188 39.394531 81.59375 39.378906 C 82.511719 39.339844 83.253906 38.96875 83.824219 38.261719 C 83.96875 37.144531 83.480469 36.421875 82.359375 36.09375 C 80.199219 35.835938 78.207031 35.136719 76.375 33.996094 C 74.085938 32.070312 73.644531 29.761719 75.050781 27.070312 C 76.417969 25.296875 78.207031 24.269531 80.410156 23.992188 Z M 80.410156 23.992188 "/>
</g>
<mask id="mask10">
  <g filter="url(#alpha)">
<rect x="0" y="0" width="154" height="54" style="fill:rgb(0%,0%,0%);fill-opacity:0.972549;stroke:none;"/>
  </g>
</mask>
<clipPath id="clip11">
  <rect x="0" y="0" width="154" height="54"/>
</clipPath>
<g id="surface35" clip-path="url(#clip11)">
<path style=" stroke:none;fill-rule:evenodd;fill:rgb(29.803922%,30.196078%,30.588235%);fill-opacity:1;" d="M 99.625 23.992188 C 104.074219 23.671875 107.53125 25.351562 110 29.027344 C 110.742188 30.378906 111.160156 31.824219 111.253906 33.367188 C 111.324219 36.675781 111.347656 39.988281 111.324219 43.296875 C 109.652344 43.296875 107.980469 43.296875 106.308594 43.296875 C 106.332031 42.644531 106.308594 41.992188 106.242188 41.339844 C 104.566406 43.285156 102.453125 44.101562 99.90625 43.789062 C 94.320312 42.863281 91.257812 39.578125 90.714844 33.925781 C 91.253906 28.394531 94.222656 25.082031 99.625 23.992188 Z M 100.878906 28.75 C 103.660156 28.957031 105.402344 30.402344 106.101562 33.085938 C 106.347656 36.113281 105.023438 38.046875 102.132812 38.890625 C 98.535156 39.171875 96.492188 37.515625 96.007812 33.925781 C 96.355469 30.960938 97.980469 29.234375 100.878906 28.75 Z M 100.878906 28.75 "/>
</g>
<mask id="mask11">
  <g filter="url(#alpha)">
<rect x="0" y="0" width="154" height="54" style="fill:rgb(0%,0%,0%);fill-opacity:0.976471;stroke:none;"/>
  </g>
</mask>
<clipPath id="clip12">
  <rect x="0" y="0" width="154" height="54"/>
</clipPath>
<g id="surface38" clip-path="url(#clip12)">
<path style=" stroke:none;fill-rule:evenodd;fill:rgb(29.803922%,30.196078%,30.588235%);fill-opacity:1;" d="M 0.207031 24.550781 C 1.972656 24.550781 3.734375 24.550781 5.5 24.550781 C 5.5 30.800781 5.5 37.050781 5.5 43.296875 C 3.734375 43.296875 1.972656 43.296875 0.207031 43.296875 C 0.207031 37.050781 0.207031 30.800781 0.207031 24.550781 Z M 0.207031 24.550781 "/>
</g>
<mask id="mask12">
  <g filter="url(#alpha)">
<rect x="0" y="0" width="154" height="54" style="fill:rgb(0%,0%,0%);fill-opacity:0.878431;stroke:none;"/>
  </g>
</mask>
<clipPath id="clip13">
  <rect x="0" y="0" width="154" height="54"/>
</clipPath>
<g id="surface41" clip-path="url(#clip13)">
<path style=" stroke:none;fill-rule:evenodd;fill:rgb(29.803922%,30.196078%,30.588235%);fill-opacity:1;" d="M 92.664062 53.929688 C 91.644531 53.929688 90.621094 53.929688 89.601562 53.929688 C 89.457031 53.824219 89.296875 53.730469 89.113281 53.648438 C 89.042969 53.328125 89.023438 53 89.042969 52.671875 C 89.90625 52.960938 90.785156 53.078125 91.691406 53.019531 C 92.570312 52.792969 92.800781 52.28125 92.386719 51.480469 C 91.710938 51.121094 91.015625 50.792969 90.296875 50.503906 C 89.125 49.753906 88.867188 48.75 89.53125 47.496094 C 89.875 47.195312 90.269531 46.984375 90.714844 46.867188 C 91.660156 46.753906 92.585938 46.824219 93.5 47.074219 C 93.542969 47.460938 93.496094 47.832031 93.359375 48.195312 C 92.507812 47.75 91.625 47.679688 90.714844 47.984375 C 90.160156 48.449219 90.160156 48.917969 90.714844 49.382812 C 91.550781 49.804688 92.386719 50.222656 93.222656 50.640625 C 93.875 51.5 93.945312 52.410156 93.429688 53.371094 C 93.148438 53.539062 92.894531 53.722656 92.664062 53.929688 Z M 92.664062 53.929688 "/>
</g>
<mask id="mask13">
  <g filter="url(#alpha)">
<rect x="0" y="0" width="154" height="54" style="fill:rgb(0%,0%,0%);fill-opacity:0.890196;stroke:none;"/>
  </g>
</mask>
<clipPath id="clip14">
  <rect x="0" y="0" width="154" height="54"/>
</clipPath>
<g id="surface44" clip-path="url(#clip14)">
<path style=" stroke:none;fill-rule:evenodd;fill:rgb(29.803922%,30.196078%,30.588235%);fill-opacity:1;" d="M 116.613281 53.929688 C 115.640625 53.929688 114.664062 53.929688 113.691406 53.929688 C 113.546875 53.824219 113.382812 53.730469 113.203125 53.648438 C 113.132812 53.328125 113.109375 53 113.132812 52.671875 C 113.597656 52.773438 114.0625 52.890625 114.523438 53.019531 C 115.160156 53.144531 115.765625 53.050781 116.335938 52.742188 C 116.722656 52.234375 116.675781 51.769531 116.195312 51.34375 C 115.21875 50.980469 114.3125 50.488281 113.480469 49.875 C 112.785156 48.429688 113.179688 47.425781 114.664062 46.867188 C 115.609375 46.753906 116.535156 46.824219 117.449219 47.074219 C 117.472656 47.449219 117.449219 47.824219 117.378906 48.195312 C 116.394531 47.664062 115.421875 47.664062 114.457031 48.195312 C 114.320312 48.636719 114.390625 49.035156 114.664062 49.382812 C 115.441406 49.785156 116.230469 50.15625 117.03125 50.503906 C 117.292969 50.71875 117.503906 50.976562 117.660156 51.273438 C 118.027344 52.480469 117.679688 53.367188 116.613281 53.929688 Z M 116.613281 53.929688 "/>
</g>
<mask id="mask14">
  <g filter="url(#alpha)">
<rect x="0" y="0" width="154" height="54" style="fill:rgb(0%,0%,0%);fill-opacity:0.886275;stroke:none;"/>
  </g>
</mask>
<clipPath id="clip15">
  <rect x="0" y="0" width="154" height="54"/>
</clipPath>
<g id="surface47" clip-path="url(#clip15)">
<path style=" stroke:none;fill-rule:evenodd;fill:rgb(29.803922%,30.196078%,30.588235%);fill-opacity:1;" d="M 122.742188 53.929688 C 121.765625 53.929688 120.792969 53.929688 119.816406 53.929688 C 119.671875 53.824219 119.511719 53.730469 119.328125 53.648438 C 119.261719 53.328125 119.238281 53 119.257812 52.671875 C 119.726562 52.773438 120.1875 52.890625 120.652344 53.019531 C 121.289062 53.144531 121.890625 53.050781 122.460938 52.742188 C 122.847656 52.234375 122.800781 51.769531 122.324219 51.34375 C 121.34375 50.980469 120.4375 50.488281 119.609375 49.875 C 118.910156 48.425781 119.304688 47.421875 120.792969 46.867188 C 121.734375 46.753906 122.664062 46.824219 123.574219 47.074219 C 123.597656 47.449219 123.574219 47.824219 123.507812 48.195312 C 122.539062 47.667969 121.589844 47.667969 120.652344 48.195312 C 120.433594 48.628906 120.480469 49.027344 120.792969 49.382812 C 121.566406 49.785156 122.355469 50.15625 123.160156 50.503906 C 123.902344 51.179688 124.109375 51.996094 123.785156 52.949219 C 123.542969 53.40625 123.195312 53.730469 122.742188 53.929688 Z M 122.742188 53.929688 "/>
</g>
<mask id="mask15">
  <g filter="url(#alpha)">
<rect x="0" y="0" width="154" height="54" style="fill:rgb(0%,0%,0%);fill-opacity:0.886275;stroke:none;"/>
  </g>
</mask>
<clipPath id="clip16">
  <rect x="0" y="0" width="154" height="54"/>
</clipPath>
<g id="surface50" clip-path="url(#clip16)">
<path style=" stroke:none;fill-rule:evenodd;fill:rgb(29.803922%,30.196078%,30.588235%);fill-opacity:1;" d="M 78.042969 53.929688 C 76.746094 53.929688 75.445312 53.929688 74.144531 53.929688 C 74.144531 51.597656 74.144531 49.265625 74.144531 46.933594 C 75.445312 46.910156 76.746094 46.933594 78.042969 47.003906 C 79.15625 47.441406 79.550781 48.257812 79.226562 49.453125 C 79.101562 49.757812 78.9375 50.035156 78.742188 50.292969 C 79.632812 51.085938 79.796875 52.015625 79.226562 53.089844 C 78.90625 53.496094 78.511719 53.777344 78.042969 53.929688 Z M 75.257812 47.914062 C 76.050781 47.890625 76.839844 47.914062 77.625 47.984375 C 78.359375 48.566406 78.359375 49.171875 77.625 49.804688 C 76.839844 49.871094 76.050781 49.894531 75.257812 49.875 C 75.257812 49.21875 75.257812 48.566406 75.257812 47.914062 Z M 75.257812 50.851562 C 76.097656 50.828125 76.929688 50.851562 77.765625 50.921875 C 78.234375 51.082031 78.417969 51.40625 78.324219 51.902344 C 78.417969 52.394531 78.234375 52.722656 77.765625 52.878906 C 76.929688 52.949219 76.097656 52.972656 75.257812 52.949219 C 75.257812 52.25 75.257812 51.550781 75.257812 50.851562 Z M 75.257812 50.851562 "/>
</g>
<mask id="mask16">
  <g filter="url(#alpha)">
<rect x="0" y="0" width="154" height="54" style="fill:rgb(0%,0%,0%);fill-opacity:0.866667;stroke:none;"/>
  </g>
</mask>
<clipPath id="clip17">
  <rect x="0" y="0" width="154" height="54"/>
</clipPath>
<g id="surface53" clip-path="url(#clip17)">
<path style=" stroke:none;fill-rule:evenodd;fill:rgb(29.803922%,30.196078%,30.588235%);fill-opacity:1;" d="M 85.5625 53.929688 C 84.726562 53.929688 83.890625 53.929688 83.058594 53.929688 C 82.316406 53.675781 81.828125 53.164062 81.59375 52.390625 C 81.398438 50.578125 81.332031 48.761719 81.386719 46.933594 C 81.804688 46.933594 82.222656 46.933594 82.640625 46.933594 C 82.617188 48.660156 82.640625 50.386719 82.707031 52.113281 C 83.070312 52.703125 83.605469 52.980469 84.308594 52.949219 C 85.015625 52.980469 85.546875 52.703125 85.910156 52.113281 C 86.105469 50.394531 86.175781 48.667969 86.121094 46.933594 C 86.492188 46.933594 86.863281 46.933594 87.234375 46.933594 C 87.289062 48.761719 87.21875 50.578125 87.023438 52.390625 C 86.789062 53.164062 86.304688 53.675781 85.5625 53.929688 Z M 85.5625 53.929688 "/>
</g>
<mask id="mask17">
  <g filter="url(#alpha)">
<rect x="0" y="0" width="154" height="54" style="fill:rgb(0%,0%,0%);fill-opacity:0.886275;stroke:none;"/>
  </g>
</mask>
<clipPath id="clip18">
  <rect x="0" y="0" width="154" height="54"/>
</clipPath>
<g id="surface56" clip-path="url(#clip18)">
<path style=" stroke:none;fill-rule:evenodd;fill:rgb(29.803922%,30.196078%,30.588235%);fill-opacity:1;" d="M 96.839844 53.929688 C 96.46875 53.929688 96.097656 53.929688 95.726562 53.929688 C 95.726562 51.597656 95.726562 49.265625 95.726562 46.933594 C 96.097656 46.933594 96.46875 46.933594 96.839844 46.933594 C 96.839844 49.265625 96.839844 51.597656 96.839844 53.929688 Z M 96.839844 53.929688 "/>
</g>
<mask id="mask18">
  <g filter="url(#alpha)">
<rect x="0" y="0" width="154" height="54" style="fill:rgb(0%,0%,0%);fill-opacity:0.894118;stroke:none;"/>
  </g>
</mask>
<clipPath id="clip19">
  <rect x="0" y="0" width="154" height="54"/>
</clipPath>
<g id="surface59" clip-path="url(#clip19)">
<path style=" stroke:none;fill-rule:evenodd;fill:rgb(29.803922%,30.196078%,30.588235%);fill-opacity:1;" d="M 104.640625 53.929688 C 104.269531 53.929688 103.898438 53.929688 103.523438 53.929688 C 102.4375 52.300781 101.34375 50.667969 100.253906 49.035156 C 100.183594 50.664062 100.160156 52.296875 100.183594 53.929688 C 99.8125 53.929688 99.441406 53.929688 99.070312 53.929688 C 99.070312 51.597656 99.070312 49.265625 99.070312 46.933594 C 99.480469 46.894531 99.875 46.941406 100.253906 47.074219 C 101.265625 48.699219 102.332031 50.285156 103.457031 51.832031 C 103.523438 50.199219 103.546875 48.566406 103.523438 46.933594 C 103.898438 46.933594 104.269531 46.933594 104.640625 46.933594 C 104.640625 49.265625 104.640625 51.597656 104.640625 53.929688 Z M 104.640625 53.929688 "/>
</g>
<mask id="mask19">
  <g filter="url(#alpha)">
<rect x="0" y="0" width="154" height="54" style="fill:rgb(0%,0%,0%);fill-opacity:0.901961;stroke:none;"/>
  </g>
</mask>
<clipPath id="clip20">
  <rect x="0" y="0" width="154" height="54"/>
</clipPath>
<g id="surface62" clip-path="url(#clip20)">
<path style=" stroke:none;fill-rule:evenodd;fill:rgb(29.803922%,30.196078%,30.588235%);fill-opacity:1;" d="M 111.324219 53.929688 C 109.792969 53.929688 108.257812 53.929688 106.726562 53.929688 C 106.726562 51.597656 106.726562 49.265625 106.726562 46.933594 C 108.257812 46.933594 109.792969 46.933594 111.324219 46.933594 C 111.324219 47.261719 111.324219 47.589844 111.324219 47.914062 C 110.164062 47.914062 109.003906 47.914062 107.839844 47.914062 C 107.839844 48.566406 107.839844 49.21875 107.839844 49.875 C 108.722656 49.875 109.605469 49.875 110.488281 49.875 C 110.488281 50.199219 110.488281 50.527344 110.488281 50.851562 C 109.605469 50.851562 108.722656 50.851562 107.839844 50.851562 C 107.839844 51.550781 107.839844 52.25 107.839844 52.949219 C 109.003906 52.949219 110.164062 52.949219 111.324219 52.949219 C 111.324219 53.277344 111.324219 53.605469 111.324219 53.929688 Z M 111.324219 53.929688 "/>
</g>
</defs>
<g id="surface1">
<use xlink:href="#surface5" mask="url(#mask0)"/>
<use xlink:href="#surface8" mask="url(#mask1)"/>
<path style=" stroke:none;fill-rule:evenodd;fill:rgb(92.54902%,0.392157%,54.509804%);fill-opacity:1;" d="M 140.144531 1.886719 C 140.191406 1.886719 140.238281 1.886719 140.285156 1.886719 C 142.175781 2.09375 143.984375 2.632812 145.714844 3.496094 C 149.617188 5.859375 151.707031 9.332031 151.980469 13.917969 C 148.292969 17.304688 144.394531 17.582031 140.285156 14.757812 C 139.867188 14.433594 139.496094 14.058594 139.171875 13.640625 C 136.484375 9.46875 136.808594 5.550781 140.144531 1.886719 Z M 140.144531 1.886719 "/>
<path style=" stroke:none;fill-rule:evenodd;fill:rgb(77.254902%,8.627451%,54.901961%);fill-opacity:1;" d="M 139.171875 13.640625 C 139.496094 14.058594 139.867188 14.433594 140.285156 14.757812 C 142.765625 18.117188 142.882812 21.566406 140.632812 25.113281 C 140.203125 25.566406 139.808594 26.03125 139.449219 26.511719 C 139.402344 26.511719 139.355469 26.511719 139.308594 26.511719 C 133.246094 25.898438 129.417969 22.632812 127.824219 16.71875 C 127.71875 16.019531 127.648438 15.320312 127.613281 14.621094 C 131.199219 11.269531 135.054688 10.945312 139.171875 13.640625 Z M 139.171875 13.640625 "/>
<use xlink:href="#surface11" mask="url(#mask2)"/>
<use xlink:href="#surface14" mask="url(#mask3)"/>
<use xlink:href="#surface17" mask="url(#mask4)"/>
<use xlink:href="#surface20" mask="url(#mask5)"/>
<use xlink:href="#surface23" mask="url(#mask6)"/>
<use xlink:href="#surface26" mask="url(#mask7)"/>
<use xlink:href="#surface29" mask="url(#mask8)"/>
<use xlink:href="#surface32" mask="url(#mask9)"/>
<use xlink:href="#surface35" mask="url(#mask10)"/>
<use xlink:href="#surface38" mask="url(#mask11)"/>
<use xlink:href="#surface41" mask="url(#mask12)"/>
<use xlink:href="#surface44" mask="url(#mask13)"/>
<use xlink:href="#surface47" mask="url(#mask14)"/>
<use xlink:href="#surface50" mask="url(#mask15)"/>
<use xlink:href="#surface53" mask="url(#mask16)"/>
<use xlink:href="#surface56" mask="url(#mask17)"/>
<use xlink:href="#surface59" mask="url(#mask18)"/>
<use xlink:href="#surface62" mask="url(#mask19)"/>
</g>
</svg>
